<svg width="52" height="52" viewBox="0 0 52 52" fill="none" xmlns="http://www.w3.org/2000/svg">
<path d="M30.5844 34.2848C31.1803 33.9406 31.3843 33.1793 31.04 32.5834L27.0472 25.6654V12.8004C27.0472 12.1123 26.4889 11.5551 25.8019 11.5551C25.1138 11.5551 24.5566 12.1133 24.5566 12.8004L24.5562 25.9998C24.5562 26.2186 24.6142 26.4335 24.7232 26.6224L24.7232 26.6225L28.8835 33.8283L28.8835 33.8284C29.1145 34.2282 29.5325 34.4518 29.963 34.4518C30.1743 34.4518 30.3889 34.3979 30.5844 34.2848ZM30.5844 34.2848L30.5094 34.1549M30.5844 34.2848C30.5845 34.2847 30.5845 34.2847 30.5846 34.2847L30.5094 34.1549M30.5094 34.1549C31.0336 33.8521 31.2129 33.1826 30.9101 32.6585L29.0134 33.7533C29.2165 34.1051 29.5841 34.3018 29.963 34.3018C30.1488 34.3018 30.3374 34.2544 30.5094 34.1549ZM9.46597 27.2453H9.61597V27.0953V24.9046V24.7546H9.46597H5.28262H5.13262V24.9046V27.0953V27.2453H5.28262H9.46597ZM24.7537 46.7173V46.8673H24.9037H27.0951H27.2451V46.7173V42.5339V42.3839H27.0951H24.9037H24.7537V42.5339V46.7173ZM42.533 24.7547H42.383V24.9047V27.0961V27.2461H42.533H46.7163H46.8663V27.0961V24.9047V24.7547H46.7163H42.533ZM27.2453 5.28272V5.13272H27.0953H24.9039H24.7539V5.28272V9.46607V9.61607H24.9039H27.0953H27.2453V9.46607V5.28272ZM14.6179 8.47599L14.488 8.55098L14.563 8.68089L15.5903 10.4607L15.6653 10.5906L15.7952 10.5156L17.6928 9.42034L17.8227 9.34536L17.7477 9.21545L16.7204 7.43562L16.6454 7.30571L16.5155 7.3807L14.6179 8.47599ZM7.38101 16.5151L7.30602 16.6451L7.43594 16.72L9.21576 17.7474L9.34567 17.8224L9.42066 17.6924L10.5159 15.7949L10.5909 15.665L10.461 15.59L8.6812 14.5627L8.55129 14.4877L8.4763 14.6176L7.38101 16.5151ZM7.43594 35.2791L7.30602 35.3541L7.38101 35.484L8.4763 37.3816L8.55129 37.5115L8.6812 37.4365L10.461 36.4092L10.5909 36.3342L10.5159 36.2043L9.42066 34.3067L9.34567 34.1768L9.21576 34.2518L7.43594 35.2791ZM14.563 43.3183L14.488 43.4482L14.6179 43.5232L16.5155 44.6185L16.6454 44.6935L16.7204 44.5635L17.7477 42.7837L17.8227 42.6538L17.6928 42.5788L15.7952 41.4835L15.6653 41.4085L15.5903 41.5385L14.563 43.3183ZM34.3073 42.5789L34.1773 42.6539L34.2523 42.7838L35.2797 44.5636L35.3546 44.6935L35.4846 44.6185L37.3821 43.5232L37.512 43.4482L37.437 43.3183L36.4097 41.5385L36.3347 41.4086L36.2048 41.4836L34.3073 42.5789ZM41.4841 36.2047L41.4091 36.3347L41.539 36.4096L43.3188 37.437L43.4487 37.512L43.5237 37.382L44.619 35.4845L44.694 35.3546L44.5641 35.2796L42.7842 34.2523L42.6543 34.1773L42.5793 34.3072L41.4841 36.2047ZM44.5649 16.7203L44.6948 16.6453L44.6198 16.5154L43.5245 14.6179L43.4495 14.488L43.3196 14.5629L41.5398 15.5903L41.4099 15.6653L41.4849 15.7952L42.5802 17.6927L42.6552 17.8226L42.7851 17.7476L44.5649 16.7203ZM34.2523 9.21571L34.1773 9.34562L34.3073 9.4206L36.2048 10.5159L36.3347 10.5909L36.4097 10.461L37.437 8.68115L37.512 8.55124L37.3821 8.47625L35.4846 7.38096L35.3546 7.30597L35.2797 7.43588L34.2523 9.21571ZM26 51.15C39.8678 51.15 51.15 39.8678 51.15 26C51.15 12.1322 39.8678 0.85 26 0.85C12.1322 0.85 0.85 12.1322 0.85 26C0.85 39.8678 12.1322 51.15 26 51.15ZM26.0002 3.34162C38.4938 3.34162 48.6586 13.5062 48.6586 26C48.6586 38.494 38.4943 48.6584 26.0002 48.6584C13.5062 48.6584 3.34183 38.4936 3.34183 26C3.34183 13.5064 13.5064 3.34162 26.0002 3.34162Z" fill="#FF00F1" stroke="#FF00F1" stroke-width="0.3"/>
</svg>
