<svg width="50" height="50" viewBox="0 0 50 50" fill="none" xmlns="http://www.w3.org/2000/svg">
<path d="M46.7533 8.83807L47.8384 7.71933H47.8381C48.0416 7.50973 48.1112 7.20354 48.0187 6.92594C47.9265 6.64834 47.6873 6.44572 47.4 6.40143L45.9314 6.1758L45.2677 4.75324H45.268C45.1401 4.47879 44.8663 4.30371 44.5651 4.30371C44.2639 4.30371 43.9901 4.47878 43.8622 4.75324L43.1988 6.1758L41.7306 6.40178V6.40143C41.4429 6.44572 41.2038 6.64834 41.1116 6.92594C41.019 7.20354 41.0887 7.50974 41.2922 7.71933L42.3773 8.83807L42.1195 10.4277C42.0716 10.7231 42.1954 11.0198 42.4387 11.1921C42.6816 11.3644 43.0012 11.3818 43.2615 11.2371L44.565 10.5117L45.8686 11.2371C46.1289 11.3818 46.4484 11.3644 46.6914 11.1921C46.9347 11.0198 47.0584 10.7231 47.0106 10.4277L46.7533 8.83807ZM45.3683 8.02899C45.196 8.2065 45.1181 8.45585 45.1576 8.70032L45.221 9.09126L44.9409 8.93537C44.707 8.80564 44.4235 8.80564 44.1895 8.93537L43.9095 9.09126L43.9729 8.70032C44.0124 8.45585 43.9344 8.2065 43.7622 8.02899L43.4585 7.71617L43.8426 7.65688L43.8429 7.65723C44.0987 7.61782 44.3184 7.45286 44.4283 7.21677L44.5652 6.92347L44.7021 7.21677C44.812 7.45286 45.0318 7.61782 45.2876 7.65723L45.6716 7.71652L45.3683 8.02899Z" fill="#FF00F1"/>
<path d="M49.9866 32.5185C49.9557 32.4261 49.8763 32.3588 49.7803 32.3438L49.2909 32.2688L49.0698 31.7945C49.0272 31.7031 48.936 31.6445 48.8355 31.6445C48.735 31.6445 48.6438 31.7031 48.6012 31.7945L48.3801 32.2688L47.8907 32.3438C47.7947 32.3588 47.7153 32.4261 47.6845 32.5188C47.6536 32.6112 47.6768 32.7134 47.7444 32.7832L48.1059 33.156L48.02 33.6857H48.0203C48.0044 33.7841 48.0456 33.8831 48.1267 33.9403C48.2078 33.9978 48.3142 34.0038 48.4009 33.9556L48.8355 33.714L49.2698 33.9556C49.3571 34.0027 49.4629 33.9968 49.5443 33.9407C49.6254 33.8831 49.6667 33.7841 49.6507 33.6857L49.5648 33.156L49.9263 32.7832H49.9266C49.9942 32.7134 50.0174 32.6112 49.9866 32.5185V32.5185Z" fill="#FF00F1"/>
<path d="M2.10932 25.7041L1.61992 25.6291L1.39879 25.1548C1.35616 25.0635 1.265 25.0049 1.16449 25.0049C1.06432 25.0049 0.972816 25.0635 0.93019 25.1548L0.709057 25.6291L0.219659 25.7041C0.123653 25.7191 0.0442762 25.7864 0.0134337 25.8792C-0.0174141 25.9716 0.00580853 26.0738 0.0733956 26.1435L0.434898 26.5163L0.348941 27.0461H0.349288C0.333344 27.1444 0.37459 27.2435 0.455693 27.3007C0.536797 27.3582 0.643205 27.3641 0.72985 27.316L1.16448 27.0743L1.59912 27.316C1.68577 27.3641 1.79218 27.3582 1.87327 27.3007C1.95438 27.2435 1.99562 27.1444 1.97968 27.0461L1.89372 26.5163L2.25523 26.1435H2.25557C2.32316 26.0738 2.34638 25.9716 2.31553 25.8792C2.28469 25.7864 2.20531 25.7191 2.10931 25.7041H2.10932Z" fill="#FF00F1"/>
<path d="M5.04628 6.25657H5.82267V7.03775C5.82267 7.46914 6.17031 7.81893 6.59905 7.81893C7.0278 7.81893 7.37544 7.46914 7.37544 7.03775V6.25657H8.15183C8.58057 6.25657 8.92821 5.90678 8.92821 5.47538C8.92821 5.04399 8.58057 4.6942 8.15183 4.6942H7.37544V3.91302C7.37544 3.48163 7.0278 3.13184 6.59905 3.13184C6.17031 3.13184 5.82267 3.48163 5.82267 3.91302V4.6942H5.04628C4.61754 4.6942 4.2699 5.04399 4.2699 5.47538C4.2699 5.90678 4.61754 6.25657 5.04628 6.25657Z" fill="#FF00F1"/>
<path d="M39.5959 38.6756H38.8195V37.8945C38.8195 37.4631 38.4719 37.1133 38.0431 37.1133C37.6144 37.1133 37.2668 37.4631 37.2668 37.8945V38.6756H36.4904C36.0616 38.6756 35.714 39.0254 35.714 39.4568C35.714 39.8882 36.0616 40.238 36.4904 40.238H37.2668V41.0192C37.2668 41.4506 37.6144 41.8004 38.0431 41.8004C38.4719 41.8004 38.8195 41.4506 38.8195 41.0192V40.238H39.5959C40.0247 40.238 40.3723 39.8882 40.3723 39.4568C40.3723 39.0254 40.0247 38.6756 39.5959 38.6756Z" fill="#FF00F1"/>
<path d="M8.81111 32.2268C8.50021 32.0165 8.10612 31.9747 7.75851 32.1152L4.82279 33.2176C4.40722 33.3938 4.13618 33.8028 4.13514 34.2566V37.3464L3.59964 37.557H3.59929C3.2 37.7143 3.00279 38.1673 3.15876 38.5691C3.32201 38.9635 3.76497 39.1592 4.16425 39.0127L5.19396 38.6082H5.19361C5.49169 38.491 5.68752 38.2022 5.68786 37.8803V34.56L7.7637 33.7802V36.6741L7.05837 36.9921V36.9925C6.66844 37.17 6.49514 37.631 6.66983 38.0237C6.84486 38.4164 7.30272 38.5929 7.69368 38.4182L8.8579 37.893C9.13692 37.7671 9.31646 37.4877 9.31646 37.1801V33.1672C9.31611 32.7884 9.12618 32.4348 8.81112 32.227L8.81111 32.2268Z" fill="#FF00F1"/>
<path d="M41.4148 20.1276C41.1095 19.9096 40.714 19.8639 40.3674 20.0073L37.4317 21.1097C37.0161 21.2858 36.7451 21.6945 36.744 22.1486V25.2391L36.2085 25.4494L36.2082 25.4491C35.8089 25.6064 35.6117 26.0594 35.7677 26.4611C35.9295 26.8573 36.3739 27.0533 36.7731 26.9047L37.8028 26.5002H37.8025C38.1006 26.383 38.2967 26.0943 38.2967 25.7724V22.452L40.3726 21.6722V24.5661L39.6672 24.8845C39.479 24.9692 39.3324 25.1258 39.2593 25.3194C39.1858 25.5129 39.1921 25.7281 39.2763 25.9171C39.4517 26.3109 39.9113 26.4866 40.3025 26.3102L41.4668 25.785C41.7458 25.6591 41.9253 25.3797 41.9253 25.0721V21.0592C41.9187 20.6829 41.7277 20.3341 41.4148 20.1276L41.4148 20.1276Z" fill="#FF00F1"/>
<path d="M30.4727 10.3076C30.1791 10.0157 29.8464 9.76705 29.4838 9.56827C29.3348 9.48422 29.1802 9.41099 29.0204 9.34961C28.6842 9.83855 28.2703 10.2689 27.7958 10.6229L28.2055 10.7244C28.3847 10.7683 28.5573 10.8367 28.7178 10.9273C28.942 11.0501 29.15 11.2001 29.3372 11.3741L33.3456 16.3433C33.5616 16.6101 33.7016 16.9306 33.7515 17.271C33.8014 17.611 33.7588 17.9587 33.6288 18.2768C33.6288 18.2768 29.6769 25.6924 29.6689 25.7127C29.5742 26.0206 29.2561 26.1999 28.9459 26.12C28.7632 26.0551 28.6142 25.9191 28.5317 25.7427C28.4495 25.5662 28.4405 25.3643 28.5074 25.1812L31.8406 18.5052C31.9872 18.2109 31.9353 17.8555 31.71 17.6166L27.8873 13.5615C27.592 13.249 27.1012 13.2364 26.7903 13.5329C26.4798 13.8296 26.4663 14.3235 26.7605 14.6366L30.2081 18.2939L27.1084 24.5018C27.1022 24.5144 27.0963 24.5269 27.0908 24.5398V24.5402C26.8443 25.102 26.8395 25.7412 27.0769 26.3069C27.3213 26.8945 27.7958 27.3549 28.3884 27.5788C29.5988 28.0468 30.5086 27.4107 31.0798 26.3655C31.0798 26.3655 35.0335 18.9453 35.0421 18.9254V18.9251C35.292 18.343 35.3786 17.7027 35.2923 17.0746C35.2064 16.4461 34.9506 15.8536 34.553 15.3613C34.553 15.3613 30.4884 10.3244 30.4725 10.3077L30.4727 10.3076Z" fill="#FF00F1"/>
<path d="M23.4293 10.0117L23.4442 10.0156L23.4439 10.0159C24.4328 10.2855 25.4867 10.1596 26.3851 9.66438C27.2835 9.16917 27.9562 8.34298 28.2619 7.35923L28.9672 4.89676C29.2473 3.92693 29.126 2.88416 28.6303 2.00531C28.117 1.08709 27.2564 0.41643 26.2443 0.146542C25.2554 -0.132103 24.1973 -0.0103906 23.2968 0.486218C22.3963 0.982828 21.7246 1.81459 21.4262 2.80289L20.7208 5.26536C20.4408 6.23555 20.5621 7.27831 21.0577 8.15717C21.5676 9.07119 22.4227 9.74007 23.4292 10.0117L23.4293 10.0117ZM22.2131 5.69782L22.9184 3.23535V3.2357C23.1108 2.64528 23.5208 2.15213 24.0646 1.85778C24.6081 1.56344 25.2434 1.4909 25.8385 1.65447C26.426 1.80862 26.9286 2.19118 27.2353 2.71813C27.5424 3.24507 27.6287 3.87321 27.4751 4.46432L26.7698 6.92678C26.5851 7.52209 26.1761 8.0208 25.6302 8.31649C25.0843 8.61187 24.4452 8.68057 23.8494 8.50759C23.2619 8.35345 22.7597 7.97088 22.4526 7.44394C22.1458 6.91699 22.0595 6.28886 22.2131 5.69775L22.2131 5.69782Z" fill="#FF00F1"/>
<path d="M32.2535 34.7622L30.491 30.8629C30.6858 30.247 30.7208 29.591 30.5929 28.9577C30.1264 29.199 29.6065 29.3179 29.0821 29.3029C29.0988 29.4041 29.1095 29.5059 29.1133 29.6084C29.1341 30.4817 28.721 31.3075 28.0118 31.8114L17.9153 39.2742C17.5427 39.5515 17.0262 39.518 16.6918 39.1957C16.5074 39.0154 16.4044 38.7671 16.4065 38.5084C16.4086 38.2499 16.516 38.0034 16.7032 37.8262L24.3936 30.6777H24.3939C24.6168 30.4706 24.6993 30.1515 24.605 29.8613C24.5108 29.5712 24.257 29.3626 23.9555 29.3277L15.8554 28.3927C15.3044 28.3 14.8201 27.9708 14.5287 27.4908C14.3422 27.0497 14.3086 26.5587 14.4334 26.0959L19.1222 25.9899L19.1218 25.9902C19.5398 25.9804 19.8754 25.6397 19.8809 25.2191C19.8809 25.2048 19.8875 24.8296 19.9291 24.1998C19.9291 24.1998 25.4387 24.069 25.5194 24.054C25.5371 24.0087 26.7082 21.632 26.7082 21.632C26.5775 20.276 26.8119 18.9101 27.3865 17.6769L26.2656 16.4877C24.9707 18.6133 25.0397 21.0809 25.2414 22.5233L20.067 22.6339C20.3363 19.9471 20.9453 17.3061 21.8794 14.7746C22.0361 14.3729 21.8392 13.9199 21.4403 13.7622C21.041 13.6049 20.5904 13.8027 20.4341 14.2044C18.8293 18.322 18.4467 22.7148 18.3562 24.4446L14.2493 24.5374L16.5834 19.6198V19.6194C16.9504 18.8491 17.1546 18.01 17.1826 17.1559L17.3546 12.0932C17.367 11.6632 17.0322 11.304 16.6049 11.2894C16.1779 11.2747 15.8191 11.6102 15.8025 12.0398L15.7727 12.9176L5.6486 17.1698C5.3169 17.2591 4.96511 17.1263 4.77413 16.8389C4.65801 16.6464 4.63479 16.411 4.71139 16.1993C4.78764 15.9876 4.9554 15.822 5.16752 15.7494C5.19906 15.7383 17.0475 9.66145 17.0475 9.66145C17.3151 9.52475 17.6101 9.45116 17.9102 9.44628L20.0089 9.41245C19.899 9.25656 19.7971 9.09544 19.7039 8.92909C19.516 8.5908 19.3649 8.233 19.2529 7.8623L17.8849 7.88427H17.8853C17.3484 7.89334 16.8205 8.02517 16.3418 8.26964L4.59486 14.2966C3.95053 14.54 3.4483 15.0614 3.22612 15.717C3.00222 16.3758 3.09198 17.1023 3.46943 17.6861C3.75191 18.1122 4.16263 18.4362 4.64129 18.6105C5.11994 18.7852 5.64154 18.8009 6.12991 18.6559C7.00126 18.3905 15.7127 14.6576 15.7136 14.6349L15.6297 17.1026V17.103C15.6089 17.7418 15.4561 18.3696 15.1816 18.9464L12.3034 25.01C12.199 25.2276 12.2011 25.4818 12.3099 25.6973C12.4184 25.9129 12.6205 26.0652 12.8565 26.1092C12.7384 26.813 12.8354 27.5359 13.1356 28.1825C13.5646 29.0463 14.3691 29.6312 15.5267 29.921C15.5593 29.929 22.0962 30.6858 22.0962 30.6858L15.6487 36.6786C15.0203 37.2669 14.7369 38.1387 14.8977 38.9869C15.0584 39.835 15.6415 40.5405 16.4411 40.8547C17.2404 41.1686 18.1443 41.0472 18.8337 40.5329L25.2278 35.8064L25.8107 37.3115L19.0378 46.4197C18.6988 46.9166 18.5699 47.5287 18.6787 48.1212C18.7872 48.7137 19.1251 49.239 19.618 49.5814C20.0904 49.9064 20.6633 50.0497 21.2318 49.9845C21.8006 49.9193 22.3271 49.6504 22.715 49.227L31.0375 40.1653C32.2725 38.8206 33.0281 36.7755 32.2531 34.7626L32.2535 34.7622ZM29.8983 39.1037L21.5653 48.177C21.2891 48.4769 20.8357 48.5275 20.5006 48.2959C20.1862 48.0835 20.0958 47.6581 20.2964 47.3347L27.3127 37.9007C27.4735 37.6849 27.512 37.4006 27.4146 37.1495L26.5241 34.8496L28.9309 33.0702C29.1486 32.9063 29.351 32.7226 29.5347 32.5213C29.5347 32.5213 30.9582 35.6217 30.9973 35.8208C31.1235 36.4611 31.1568 37.7375 29.8983 39.1038L29.8983 39.1037Z" fill="#FF00F1"/>
</svg>
