<svg width="54" height="54" viewBox="0 0 54 54" fill="none" xmlns="http://www.w3.org/2000/svg">
<path d="M26.9803 34.2891V28.0283C26.9803 27.4601 26.5368 27 25.9902 27C25.4435 27 25 27.4601 25 28.0283V35.3178C25 35.8856 25.4435 36.3462 25.9902 36.3462H33.0098C33.5565 36.3462 34 35.8856 34 35.3178C34 34.7501 33.5565 34.2895 33.0098 34.2895L26.9803 34.2891Z" fill="#FF00F1"/>
<path d="M53.7172 12.6449L48.4505 7.01161C48.2639 6.81137 48.0067 6.6955 47.7351 6.68919C47.4888 6.67659 47.203 6.78664 47.007 6.97767L43.2323 10.66C42.8245 11.0575 42.8098 11.7174 43.1991 12.1344L43.8256 12.8044L41.3668 15.2028C38.6739 12.9876 35.4469 11.4289 31.9158 10.7575V7.41697H33.8601C34.4236 7.41697 34.8807 6.95056 34.8807 6.37458V1.04287C34.8807 0.466892 34.4236 0.000484833 33.8601 0.000484833L22.1381 0C21.5747 0 21.1175 0.466408 21.1175 1.04239V6.37409C21.1175 6.95007 21.5747 7.41648 22.1381 7.41648H24.0825V10.757C20.5517 11.4285 17.3248 12.9882 14.6323 15.2024L12.173 12.8044L12.7995 12.1339C13.1888 11.7174 13.1736 11.058 12.7663 10.6595L8.99018 6.97719C8.79413 6.78616 8.52736 6.67466 8.26201 6.68872C7.99095 6.69502 7.73463 6.8109 7.5476 7.01114L2.28236 12.6445C1.89312 13.0609 1.90831 13.7203 2.31559 14.1188L6.09123 17.8007C6.2811 17.9864 6.53364 18.0891 6.79615 18.0891H6.81988C7.09093 18.0828 7.34725 17.967 7.53429 17.7667L8.16087 17.0962L10.6406 19.514C8.13098 23.0892 6.6466 27.4648 6.6466 32.1901C6.6466 44.216 16.2253 54 27.999 54C39.7732 54 49.3526 44.2166 49.3526 32.1901C49.3526 27.4645 47.8682 23.0888 45.3581 19.514L47.8383 17.0962L48.4649 17.7667C48.6514 17.967 48.9087 18.0828 49.1793 18.0891H49.203C49.4655 18.0891 49.7181 17.9863 49.9079 17.8007L53.6841 14.1188C53.8792 13.9278 53.9931 13.6655 53.9997 13.3892C54.0059 13.1128 53.9039 12.8447 53.7173 12.6449L53.7172 12.6449ZM23.1584 2.08378H32.8402V5.33019H23.1584V2.08378ZM26.1233 7.41549H29.8743V10.4709C29.2557 10.4161 28.6315 10.3817 27.9987 10.3817C27.366 10.3817 26.7417 10.4156 26.1232 10.4709L26.1233 7.41549ZM6.76263 15.5729L4.46371 13.3305L8.31956 9.20563L10.619 11.4479L9.99286 12.118L9.99238 12.1185L7.39014 14.9024L7.38967 14.9029L6.76263 15.5729ZM9.57037 15.5879L10.7628 14.3123L13.0993 16.5905C12.6877 17.0012 12.2928 17.4293 11.914 17.8724L9.57037 15.5879ZM27.999 51.9145C17.3507 51.9145 8.68813 43.0663 8.68813 32.1898C8.68813 21.314 17.3512 12.4663 27.999 12.4663C38.6472 12.4663 47.311 21.3145 47.311 32.1898C47.311 43.0656 38.6474 51.9145 27.999 51.9145ZM44.0858 17.8716C43.7066 17.428 43.3121 17.0009 42.9005 16.5898L45.237 14.3116L46.4294 15.5871L44.0858 17.8716ZM49.2367 15.5726L48.6106 14.9026C48.6101 14.9026 48.6101 14.9026 48.6101 14.9021L48.1397 14.3984L45.3809 11.4472L47.6798 9.20491L51.5361 13.3298L49.2367 15.5726Z" fill="#FF00F1"/>
<path d="M20.9354 45.6924H1.06458C0.476337 45.6924 0 46.1575 0 46.7308C0 47.3042 0.476337 47.7693 1.06458 47.7693H20.9354C21.5237 47.7693 22 47.3042 22 46.7308C22.0005 46.1575 21.5242 45.6924 20.9354 45.6924Z" fill="#FF00F1"/>
<path d="M13.0216 42.5771H3.97844C3.4378 42.5771 3 42.8097 3 43.0964C3 43.383 3.4378 43.6156 3.97844 43.6156H13.0216C13.5622 43.6156 14 43.383 14 43.0964C14 42.8097 13.5622 42.5771 13.0216 42.5771Z" fill="#FF00F1"/>
<path d="M1.05414 40.4998H16.9459C17.5283 40.4998 18 40.0347 18 39.4616C18 38.8884 17.5283 38.4233 16.9459 38.4233L1.05414 38.4229C0.471668 38.4229 0 38.8879 0 39.4611C0 40.0347 0.471668 40.4998 1.05414 40.4998Z" fill="#FF00F1"/>
</svg>
