<svg width="50" height="50" viewBox="0 0 50 50" fill="none" xmlns="http://www.w3.org/2000/svg">
<path d="M49.6133 0.336786C49.3934 0.190404 49.1142 0.165653 48.8716 0.270216C47.3147 0.960316 45.8467 1.83584 44.4996 2.87799C43.5236 3.63152 41.857 4.16238 40.2446 4.67364C38.0468 5.37244 35.9702 6.03226 35.1233 7.36332C33.6672 9.65077 33.8975 11.6845 34.8229 16.123C35.5802 19.7729 35.4318 20.5888 35.108 22.3688C35.0456 22.7044 34.979 23.0714 34.9128 23.489H34.9124C34.7445 24.3321 34.5332 25.1658 34.2799 25.9873C33.4092 29.0359 32.3281 32.8342 34.237 34.8213C35.818 36.4684 35.6151 36.7535 34.0146 38.9709L33.7219 39.3613C32.5194 41.0436 32.418 42.6207 32.3399 43.7724C32.3009 44.3893 32.2619 44.9434 32.0705 45.17V45.1696C31.9269 45.3861 31.7216 45.5548 31.4812 45.6534C31.2337 45.7458 31.0159 45.9033 30.851 46.1096C30.6858 46.316 30.5798 46.5631 30.5443 46.8245C30.4976 46.8673 30.4115 46.9377 30.3491 46.9845C30.0445 47.2187 29.5332 47.6129 29.5684 48.257V48.2573C29.5004 48.3556 29.3941 48.4208 29.2756 48.4368C29.2896 48.0876 29.3663 47.7439 29.5022 47.4219C30.2557 45.3568 29.8497 43.2684 29.4123 41.6798C29.1411 40.6199 28.9648 39.5384 28.8853 38.4475L28.8229 37.8424C28.78 37.4521 28.8815 35.6292 28.979 33.8765C29.1429 30.9802 29.3265 27.6931 29.1899 26.1746C29.1627 25.8742 29.139 25.4563 29.1157 24.9569L30.8371 24.8321C31.0438 24.8171 31.2358 24.7206 31.371 24.5637C31.5066 24.4072 31.5742 24.203 31.5593 23.9967L30.9152 15.3073C30.8956 14.718 30.72 11.7237 29.2757 10.6697C28.8668 10.3665 28.3541 10.2386 27.8508 10.3145C27.8118 10.1546 27.7689 9.99841 27.7261 9.84994C27.7152 9.81509 27.7024 9.78128 27.687 9.74852C27.3235 8.85556 27.212 7.88033 27.3639 6.92857C27.5162 5.97672 27.9261 5.08483 28.5496 4.3498C30.5014 2.07385 31.1769 1.61729 31.2821 1.53538C31.6972 1.41235 31.9339 0.976332 31.8109 0.56158C31.6882 0.146479 31.2522 -0.0905284 30.8371 0.0325036C30.6224 0.0753734 30.0564 0.192484 27.3705 3.31535C26.5525 4.26863 26.0147 5.42989 25.8167 6.67038C25.6191 7.91078 25.769 9.18161 26.2503 10.3418C26.2855 10.4551 26.3127 10.5799 26.3441 10.7008C24.7826 11.1145 23.7169 11.3682 23.7015 11.3721L23.7012 11.3724C23.3195 11.4644 23.0658 11.8252 23.108 12.2155C23.1501 12.6146 23.4875 12.9164 23.8887 12.9143C24.0682 12.9143 25.6491 13.0276 25.9614 15.6468L26.5821 24.3594C26.6128 24.7676 26.9536 25.083 27.3628 25.0816H27.5657C27.589 25.5852 27.6124 26.0108 27.6437 26.3269C27.7727 27.7322 27.5814 31.097 27.429 33.7984C27.2963 36.1406 27.2262 37.5145 27.2806 38.0181L27.3238 38.6075C27.4113 39.7789 27.6019 40.9403 27.8936 42.0779C28.284 43.4441 28.6235 45.2203 28.0226 46.8675C27.6322 47.9486 27.597 48.7569 27.9288 49.3386C28.1069 49.6752 28.4238 49.9164 28.7953 49.9983H29.0647C29.6586 50.0213 30.2368 49.8049 30.669 49.3971C30.9461 49.1211 31.1113 48.753 31.1336 48.3626L31.2974 48.2337L31.2977 48.234C31.6543 48.011 31.9188 47.6673 32.0432 47.2658C32.0432 47.1995 32.0704 47.1525 32.0823 47.1215C32.5598 46.9207 32.9731 46.5924 33.2767 46.1727C33.7723 45.5482 33.8232 44.7518 33.8779 43.9125C33.9483 42.839 34.0303 41.625 34.9709 40.3055L35.2599 39.9151C36.8604 37.6977 37.8244 36.3553 35.3418 33.7709C34.0536 32.4318 35.0414 28.9732 35.7593 26.4478C36.0305 25.5678 36.2546 24.6741 36.431 23.77C36.4972 23.3797 36.5599 22.9893 36.6223 22.677H36.6219C36.9036 21.4554 36.9799 20.1958 36.8485 18.9491C40.7949 22.3376 46.7087 28.7085 48.6021 30.75C48.8224 30.9967 49.1744 31.078 49.4807 30.9525C49.7871 30.827 49.9809 30.5224 49.9645 30.1916V17.1693C49.9648 16.9954 49.907 16.8263 49.8007 16.689C48.7349 15.319 46.744 13.1291 44.3123 12.2428L44.312 12.2431C44.7588 11.9329 45.2286 11.6576 45.7172 11.4192C47.0602 10.7646 48.3636 10.032 49.6208 9.22548C49.8387 9.08014 49.9694 8.83547 49.9683 8.57372V0.988905C49.9676 0.725764 49.8338 0.480396 49.6131 0.337145L49.6133 0.336786Z" fill="#FF00F1"/>
<path d="M23.5454 43.3916C23.5474 43.3525 23.5474 43.3135 23.5454 43.2745C23.6273 42.4938 24.1623 36.9583 23.5063 34.948C23.2136 34.0426 21.6445 32.1531 21.336 31.7823V31.7827C21.2956 31.7356 21.2499 31.6938 21.1994 31.6575C20.6843 30.5998 18.8572 29.9634 16.8155 29.6043H16.8159C15.3611 28.7044 13.6776 28.2436 11.9674 28.2771C10.438 28.3374 8.9449 28.7602 7.61108 29.5105C5.31176 29.8462 3.18821 30.4983 2.62217 31.6613C2.57337 31.6979 2.52876 31.7397 2.48972 31.7864C2.17744 32.1573 0.612165 34.0467 0.319419 34.9521C-0.332341 36.9624 0.202311 42.4978 0.280383 43.2786H0.280034C0.278291 43.3176 0.278291 43.3566 0.280034 43.3957C0.568971 46.1282 7.69684 46.8347 11.9087 46.8347C16.1206 46.8347 23.2608 46.1087 23.5454 43.3915L23.5454 43.3916ZM12.0255 29.8419C14.2468 29.799 16.4366 30.8373 18.525 32.9648C17.2682 33.3942 15.086 33.8159 11.9162 33.8159C8.93373 33.8159 6.8415 33.4255 5.54569 33.0352C6.61531 31.9537 9.02367 29.9123 12.0256 29.8419L12.0255 29.8419ZM4.24979 32.114L4.07412 32.3054V32.305C4.12257 32.2329 4.18181 32.1684 4.24979 32.114ZM2.05191 35.108C2.04738 35.0672 2.03971 35.0267 2.02856 34.987C2.36001 34.4736 2.71691 33.9773 3.09819 33.4998C4.70629 34.9285 9.09784 35.3502 11.9203 35.3502C14.7424 35.3498 19.1263 34.9441 20.7385 33.5152C21.1198 33.9927 21.4767 34.489 21.8078 35.0027C21.797 35.0421 21.789 43.0458 21.7845 43.087C21.6945 43.6997 18.2284 45.3964 11.9207 45.3964C5.61257 45.396 2.14253 43.8297 2.05241 43.2051L2.05191 35.108Z" fill="#FF00F1"/>
</svg>
