<svg width="52" height="50" viewBox="0 0 52 50" fill="none" xmlns="http://www.w3.org/2000/svg">
<path d="M8.37207 28.3783C9.30126 28.2245 10.2532 28.2847 11.1557 28.5546L18.39 30.7276C18.4721 30.752 18.557 30.7642 18.6426 30.7646H24.8031C25.3249 30.8311 25.8003 31.0978 26.1288 31.5093C26.4572 31.9203 26.6132 32.4432 26.5633 32.9675C26.6132 33.4919 26.4572 34.0146 26.1288 34.4257C25.8003 34.8372 25.3249 35.1039 24.8031 35.1704H17.7626V36.9328H30.0836C30.1861 36.9324 30.2883 36.9143 30.3845 36.8789L46.1936 31.1229V31.1233C46.7366 30.9258 47.3413 31.006 47.8135 31.3385C48.2861 31.6709 48.5667 32.213 48.5655 32.7913C48.5635 33.4132 48.2378 33.9888 47.7066 34.3105L29.211 45.4175C27.9935 46.1449 26.5358 46.3545 25.1627 46.0001L7.42345 41.3668C7.35116 41.3479 7.27651 41.3384 7.20186 41.3384H0.161283V43.1008H7.08911L24.7157 47.7058C26.547 48.1787 28.491 47.899 30.1148 46.9289L48.6114 35.8169V35.8165C49.5657 35.2536 50.1995 34.2745 50.3229 33.1726C50.4463 32.0707 50.0447 30.9751 49.2389 30.2147C48.4331 29.4543 47.317 29.1179 46.2259 29.3064C46.9527 27.4976 46.9877 25.4838 46.3245 23.6507C45.6609 21.8179 44.3459 20.2939 42.6305 19.371C40.9151 18.4485 38.92 18.1913 37.0271 18.6492C37.3654 16.7849 36.8291 14.8687 35.5722 13.4518C34.3158 12.0348 32.4786 11.2748 30.59 11.3904C28.701 11.5061 26.9699 12.4848 25.8953 14.0442C22.5911 14.2079 19.4696 15.6118 17.1536 17.9769C15.5671 16.7237 13.4667 16.3314 11.5357 16.9282C9.60506 17.525 8.09043 19.034 7.48534 20.9647C6.88069 22.8951 7.26217 25 8.50683 26.594C8.36067 26.6098 8.21373 26.6176 8.06679 26.6416L0 28.1396L0.320206 29.8721L8.37207 28.3783ZM13.3621 18.428C14.5761 18.4292 15.7356 18.9339 16.5646 19.8222C16.7363 20.0047 16.9771 20.1066 17.2274 20.1022C17.4781 20.0971 17.715 19.9846 17.8776 19.7938C20.0087 17.2927 23.1144 15.8344 26.3978 15.7931C26.7086 15.7895 26.9942 15.6219 27.1494 15.3525C27.7981 14.2234 28.9131 13.4394 30.194 13.2116C31.4752 12.9839 32.7913 13.3352 33.7889 14.1719C34.7864 15.0082 35.3632 16.2438 35.364 17.5468C35.3671 18.0303 35.2866 18.5106 35.1255 18.9665C35.0163 19.2722 35.0842 19.6129 35.3015 19.8536C35.4327 20 35.5486 20.1479 35.6641 20.3029V20.3033C35.8991 20.6192 36.3156 20.7403 36.6833 20.6003C38.3703 19.948 40.2586 20.0723 41.8455 20.9406C43.4323 21.8088 44.5572 23.3327 44.9206 25.1065C45.2836 26.8802 44.8487 28.7245 43.7309 30.1478L29.9284 35.1705H27.7282C28.1211 34.5033 28.3266 33.7421 28.323 32.9676C28.3769 31.9754 28.037 31.0022 27.3778 30.2595C26.7185 29.5171 25.7932 29.0652 24.8027 29.0022H18.7706L11.6606 26.8661C11.6087 26.8504 11.5533 26.8425 11.5003 26.8284C10.2795 26.2595 9.38648 25.1624 9.07579 23.8505C8.76502 22.539 9.07147 21.157 9.90675 20.0995C10.7424 19.0425 12.0154 18.4269 13.3619 18.428L13.3621 18.428Z" fill="#FF00F1"/>
<path d="M11.7241 7.931C11.7241 9.11978 12.1783 10.26 12.9864 11.101C13.795 11.9415 14.8914 12.4138 16.0345 12.4138C17.1775 12.4138 18.2739 11.9415 19.0826 11.101C19.8907 10.2601 20.3448 9.11978 20.3448 7.931C20.3448 6.74222 19.8907 5.60202 19.0826 4.761C18.274 3.92048 17.1775 3.44824 16.0345 3.44824C14.8918 3.44984 13.7962 3.92253 12.988 4.76264C12.1802 5.60315 11.7257 6.74263 11.7241 7.931ZM18.6207 7.931C18.6207 8.64424 18.3482 9.3287 17.8633 9.83292C17.3784 10.3371 16.7202 10.6206 16.0345 10.6206C15.3488 10.6206 14.6906 10.3372 14.2058 9.83292C13.7209 9.32861 13.4484 8.64414 13.4484 7.931C13.4484 7.21786 13.7208 6.5333 14.2058 6.02908C14.6907 5.52486 15.3488 5.2414 16.0345 5.2414C16.7202 5.2414 17.3785 5.52477 17.8633 6.02908C18.3481 6.53339 18.6207 7.21786 18.6207 7.931Z" fill="#FF00F1"/>
<path d="M40.6897 9.65511C40.6897 10.3866 40.9621 11.0887 41.4471 11.6058C41.932 12.123 42.5901 12.4137 43.2759 12.4137C43.9616 12.4137 44.6198 12.1231 45.1047 11.6058C45.5895 11.0886 45.8621 10.3865 45.8621 9.65511C45.8621 8.92366 45.5896 8.22154 45.1047 7.70438C44.6197 7.18722 43.9616 6.89648 43.2759 6.89648C42.5901 6.89648 41.9319 7.18713 41.4471 7.70438C40.9622 8.22164 40.6897 8.92366 40.6897 9.65511ZM44.138 9.65511C44.138 10.027 43.9279 10.3624 43.6057 10.5045C43.2836 10.6469 42.913 10.5685 42.6663 10.3054C42.4196 10.0422 42.3461 9.6469 42.4796 9.30329C42.6128 8.95969 42.9272 8.73555 43.2759 8.73555C43.5045 8.73555 43.7239 8.83243 43.8855 9.00485C44.0472 9.17726 44.138 9.41126 44.138 9.65511Z" fill="#FF00F1"/>
<path d="M34.4828 48.2754H36.2069V49.9995H34.4828V48.2754Z" fill="#FF00F1"/>
<path d="M13.4483 48.2754H15.1724V49.9995H13.4483V48.2754Z" fill="#FF00F1"/>
<path d="M27.5862 0H29.3103V1.72414H27.5862V0Z" fill="#FF00F1"/>
<path d="M23.1034 6.89648H24.8276V8.62062H23.1034V6.89648Z" fill="#FF00F1"/>
<path d="M33.7931 6.20703H35.5172V7.93117H33.7931V6.20703Z" fill="#FF00F1"/>
<path d="M47.5862 14.8271H49.3103V16.5513H47.5862V14.8271Z" fill="#FF00F1"/>
<path d="M5.51724 10.6895H7.24138V12.4136H5.51724V10.6895Z" fill="#FF00F1"/>
<path d="M41.3793 43.793H43.4483V45.5171H41.3793V43.793Z" fill="#FF00F1"/>
<path d="M45.8621 47.4134C45.8621 48.0992 46.1345 48.7573 46.6195 49.2422C47.1044 49.727 47.7625 49.9996 48.4483 49.9996C49.134 49.9996 49.7922 49.7271 50.2771 49.2422C50.7619 48.7572 51.0345 48.0991 51.0345 47.4134C51.0345 46.7276 50.762 46.0694 50.2771 45.5846C49.7922 45.0997 49.134 44.8271 48.4483 44.8271C47.7625 44.8271 47.1043 45.0996 46.6195 45.5846C46.1346 46.0695 45.8621 46.7276 45.8621 47.4134ZM49.3104 47.4134C49.3104 47.762 49.1003 48.0765 48.7782 48.2096C48.456 48.3432 48.0854 48.2697 47.8387 48.023C47.592 47.7763 47.5185 47.4057 47.6521 47.0835C47.7852 46.7614 48.0996 46.5513 48.4483 46.5513C48.6769 46.5513 48.8963 46.6421 49.0579 46.8037C49.2196 46.9654 49.3104 47.1848 49.3104 47.4134Z" fill="#FF00F1"/>
</svg>
