<svg width="50" height="50" viewBox="0 0 50 50" fill="none" xmlns="http://www.w3.org/2000/svg">
<path d="M11.6667 5.00003H13.3334V3.33335H15.0001V1.66668H13.3334V0H11.6667V1.66668H10.0001V3.33335H11.6667V5.00003Z" fill="#FF00F1"/>
<path d="M1.66668 7.50003H3.33335V5.83335H5.00003V4.16668H3.33335V2.5H1.66668V4.16668H0V5.83335H1.66668V7.50003Z" fill="#FF00F1"/>
<path d="M36.6669 5.00003H38.3336V3.33335H40.0002V1.66668H38.3336V0H36.6669V1.66668H35.0002V3.33335H36.6669V5.00003Z" fill="#FF00F1"/>
<path d="M48.3336 4.16668V2.5H46.667V4.16668H45.0003V5.83335H46.667V7.50003H48.3336V5.83335H50.0003V4.16668H48.3336Z" fill="#FF00F1"/>
<path d="M49.9508 21.3914L45.3421 8.33324C45.1698 7.84551 44.8502 7.42326 44.428 7.12485C44.0057 6.82649 43.5009 6.66614 42.9838 6.66651H42.2256C41.438 6.66428 40.6962 7.03519 40.2256 7.66652C39.7539 8.29933 39.6058 9.11672 39.8257 9.87491L43.3339 21.7836V28.1169L40.8339 32.6169V25.8334C40.832 25.1708 40.5679 24.5361 40.0995 24.0678C39.6311 23.5994 38.9964 23.3352 38.3339 23.3334H37.9172C37.4083 23.3367 36.9127 23.4945 36.496 23.7861C36.079 24.0782 35.7609 24.4896 35.5838 24.9666C35.2226 24.4599 34.784 24.0127 34.284 23.6418C35.8283 21.0224 36.6509 18.0407 36.6672 15.0001C36.6672 6.72509 31.4339 0 25.0004 0C18.567 0 13.3337 6.72509 13.3337 15.0001C13.3501 18.0366 14.1756 21.0139 15.7254 23.6251C15.2228 23.9956 14.7812 24.4428 14.4171 24.9502C14.2366 24.4766 13.917 24.0689 13.5008 23.7806C13.0841 23.4919 12.5904 23.336 12.0837 23.3334H11.667C11.0045 23.3353 10.3698 23.5994 9.9014 24.0678C9.43301 24.5362 9.16888 25.1709 9.16702 25.8334V32.617L6.66701 28.117V21.7836L10.1752 9.87497C10.3951 9.11679 10.247 8.29944 9.77529 7.66658C9.30468 7.03525 8.5629 6.66438 7.77528 6.66657H7.0171C6.49998 6.6662 5.99519 6.82654 5.5729 7.12491C5.15065 7.42327 4.83107 7.84552 4.65883 8.33329L0.0501321 21.3915C0.0170214 21.4793 -9.08526e-05 21.5723 0.000280578 21.6664V34.1665C0.00176868 34.2569 0.0159054 34.3465 0.0419475 34.4332L3.00844 43.3332H1.66691C1.20672 43.3332 0.833571 43.7063 0.833571 44.1665V49.1665C0.833571 49.3875 0.921369 49.5996 1.07762 49.7558C1.23387 49.9121 1.44593 49.9999 1.66691 49.9999H20.0003C20.2213 49.9999 20.4334 49.9121 20.5896 49.7558C20.7459 49.5996 20.8337 49.3875 20.8337 49.1665V44.1665C20.8337 43.9455 20.7459 43.7335 20.5896 43.5772C20.4334 43.421 20.2213 43.3332 20.0003 43.3332H18.3337V38.3331C18.3355 38.2539 18.3244 38.1754 18.3002 38.0999L17.3921 34.9998H32.6083L31.6999 38.0999H31.7002C31.676 38.1754 31.6649 38.2539 31.6667 38.3331V43.3332H30.0001C29.5399 43.3332 29.1667 43.7063 29.1667 44.1665V49.1665C29.1667 49.3875 29.2545 49.5996 29.4108 49.7558C29.567 49.9121 29.7791 49.9999 30.0001 49.9999H48.3335C48.5545 49.9999 48.7666 49.9121 48.9228 49.7558C49.0791 49.5996 49.1669 49.3875 49.1669 49.1665V44.1665C49.1669 43.9455 49.0791 43.7335 48.9228 43.5772C48.7666 43.421 48.5545 43.3332 48.3335 43.3332H46.992L49.9585 34.4332C49.9845 34.3465 49.9987 34.2569 50.0001 34.1665V21.6664C50.0005 21.5723 49.9834 21.4793 49.9503 21.3915L49.9508 21.3914ZM15.0001 14.9997C15.0001 7.64952 19.4833 1.66625 25.0001 1.66625C30.5169 1.66625 35.0002 7.64952 35.0002 14.9997C34.9853 18.0012 34.0995 20.9339 32.4504 23.4413C32.4839 23.1288 32.5006 22.8145 32.5002 22.4997C32.5731 19.8274 31.9258 17.1849 30.6252 14.8498C30.7624 14.3557 30.8328 13.8457 30.8335 13.333V8.33298C30.8331 7.95017 30.572 7.61646 30.2003 7.52457L23.5336 5.85789C23.3402 5.80915 23.1355 5.83296 22.9585 5.92448L19.6251 7.59116C19.3416 7.72918 19.163 8.01788 19.1668 8.33298V13.333C19.1675 13.8457 19.2378 14.3557 19.3751 14.8498C18.0745 17.185 17.4272 19.8275 17.5 22.4997C17.4997 22.8089 17.5164 23.1177 17.5499 23.4246C15.9041 20.9216 15.0183 17.9952 15.0001 14.9997L15.0001 14.9997ZM21.6668 18.1165V20.4164L19.175 22.2832C19.1642 20.3769 19.5325 18.4875 20.2583 16.7248C20.6504 17.2609 21.1259 17.7311 21.6668 18.1165ZM20.8335 13.333V8.84972L23.4336 7.5499L29.1668 8.98295V13.3331C29.1668 14.8216 28.3726 16.1973 27.0835 16.9414C25.7944 17.6858 24.2059 17.6858 22.9168 16.9414C21.6277 16.1973 20.8335 14.8216 20.8335 13.3331V13.333ZM23.0001 21.4997C23.2085 21.3412 23.3316 21.0949 23.3335 20.833V18.9245C24.4213 19.2467 25.579 19.2467 26.6668 18.9245V20.833C26.6687 21.0949 26.7918 21.3412 27.0002 21.4997L29.3167 23.2415L25.0001 25.708L20.6835 23.2415L23.0001 21.4997ZM28.3335 20.4164V18.1165C28.8744 17.7311 29.3499 17.2609 29.742 16.7248C30.4678 18.4875 30.8361 20.377 30.8253 22.2832L28.3335 20.4164ZM1.66667 34.0336V21.8087L6.22508 8.89248C6.34265 8.55617 6.66072 8.33184 7.01675 8.33407H7.77494C8.03722 8.33407 8.28425 8.45758 8.44161 8.6674C8.59897 8.87722 8.64846 9.1488 8.57516 9.40066L5.03343 21.4341C5.00924 21.5096 4.99809 21.5881 4.99995 21.6673V28.334C4.99846 28.4776 5.03566 28.6186 5.1082 28.7425L9.27489 36.2426C9.46128 36.5711 9.84558 36.7336 10.2113 36.6376C10.577 36.542 10.8322 36.212 10.8333 35.8341V25.834C10.8333 25.3738 11.2064 25.0007 11.6666 25.0007H12.0833C12.4538 25.0007 12.7797 25.2451 12.8832 25.6008L16.6667 38.4513V43.3345H4.76664L1.66667 34.0336ZM19.1668 45.0003V48.3337H2.50001V45.0003H19.1668ZM16.9 33.3336L15.1332 27.3253C15.3598 26.4113 15.8884 25.6007 16.6332 25.0251C17.2117 25.8391 17.8706 26.5929 18.6001 27.2752C18.8802 27.5222 19.2928 27.5464 19.6001 27.3336C19.9174 27.1126 20.0558 26.7115 19.9416 26.3417C19.75 25.7167 19.5499 25.0836 19.4081 24.4251L24.583 27.3916L24.5834 27.3919C24.8423 27.5363 25.1578 27.5363 25.4167 27.3919L30.6002 24.4254C30.4503 25.1256 30.2501 25.7923 30.0503 26.4255L30.05 26.4251C29.9406 26.7867 30.0875 27.1762 30.4086 27.3752C30.5414 27.4567 30.6943 27.5002 30.8502 27.5002C31.0611 27.5014 31.2643 27.4206 31.4168 27.2752C32.1408 26.5988 32.794 25.8503 33.367 25.0419C34.1114 25.6111 34.64 26.4162 34.867 27.3254L33.1002 33.3337L16.9 33.3336ZM47.5002 45.0003V48.3337H30.8334V45.0003H47.5002ZM48.3335 34.0336L45.2334 43.3334H33.3333V38.4503L37.1169 25.5997C37.2203 25.2441 37.5462 24.9996 37.9167 24.9996H38.3334C38.5544 24.9996 38.7664 25.0874 38.9227 25.2437C39.0789 25.3999 39.1667 25.612 39.1667 25.833V35.833C39.1679 36.211 39.4231 36.541 39.7888 36.6366C40.1545 36.7326 40.5388 36.57 40.7251 36.2415L44.8918 28.7415C44.9644 28.6176 45.0016 28.4766 45.0001 28.333V21.6663C45.002 21.587 44.9908 21.5086 44.9666 21.433L41.4249 9.39962C41.3516 9.14777 41.4011 8.87618 41.5584 8.66636C41.7158 8.45654 41.9628 8.33303 42.2251 8.33303H42.9833C43.3393 8.3308 43.6574 8.55513 43.775 8.89144L48.3334 21.8077L48.3335 34.0336Z" fill="#FF00F1"/>
<path d="M22.5002 10H24.1668V11.6667H22.5002V10Z" fill="#FF00F1"/>
<path d="M25.8335 10H27.5002V11.6667H25.8335V10Z" fill="#FF00F1"/>
</svg>
