<svg width="21" height="22" viewBox="0 0 21 22" fill="none" xmlns="http://www.w3.org/2000/svg">
<g clip-path="url(#clip0_47_52)">
<path d="M17.8796 3.19479C15.9069 1.13582 13.2825 0.00117493 10.4894 0C7.70261 0 5.07408 1.13364 3.08835 3.19211C1.09909 5.2541 0.00256348 7.99437 0 10.8981V10.9015V10.9035C0.000320435 12.661 0.441078 14.434 1.27773 16.0524L0.0286789 22L5.77135 20.6315C7.2258 21.3994 8.84864 21.8043 10.4854 21.805H10.4896C13.2759 21.805 15.9044 20.6712 17.8905 18.6125C19.8815 16.5488 20.9785 13.8121 20.9798 10.9065C20.9806 8.02139 19.8798 5.28264 17.8796 3.19479V3.19479ZM10.4894 20.0879H10.4857C9.01607 20.0872 7.55985 19.7007 6.27475 18.9697L6.00318 18.8153L2.18456 19.7252L3.01401 15.7761L2.85411 15.4872C2.05911 14.0509 1.63902 12.4655 1.63902 10.9016C1.64207 5.83989 5.61193 1.71707 10.4891 1.71707C12.8453 1.71808 15.0591 2.67497 16.7228 4.41118C18.4117 6.17424 19.3414 8.48079 19.3406 10.906C19.3387 15.9689 15.368 20.0879 10.4894 20.0879V20.0879Z" fill="#FF00F1"/>
<path d="M7.63511 6.0957H7.17529C7.01523 6.0957 6.75536 6.15848 6.53554 6.40907C6.31556 6.65984 5.69568 7.26593 5.69568 8.4986C5.69568 9.73126 6.55556 10.9223 6.67541 11.0896C6.79541 11.2568 8.33526 13.8672 10.7741 14.8714C12.801 15.7059 13.2136 15.5399 13.6534 15.4981C14.0933 15.4565 15.073 14.8922 15.273 14.3073C15.4729 13.7223 15.4729 13.2208 15.413 13.1161C15.3529 13.0117 15.1929 12.9491 14.953 12.8238C14.713 12.6985 13.537 12.0821 13.3171 11.9984C13.0971 11.9149 12.9372 11.8732 12.7771 12.1241C12.6171 12.3745 12.1459 12.9539 12.0058 13.1211C11.866 13.2884 11.7259 13.3094 11.4859 13.184C11.2459 13.0583 10.481 12.7891 9.56445 11.9358C8.851 11.2716 8.35593 10.4246 8.2159 10.1739C8.07603 9.92328 8.201 9.78766 8.32132 9.66261C8.42915 9.55049 8.57478 9.39708 8.69479 9.25089C8.81463 9.10452 8.84876 9.00012 8.92886 8.83295C9.00881 8.66577 8.96876 8.51941 8.90884 8.3942C8.84876 8.26881 8.38829 7.02994 8.17488 6.53445H8.17504C7.99528 6.11719 7.80606 6.10309 7.63511 6.0957V6.0957Z" fill="#FF00F1"/>
</g>
<defs>
<clipPath id="clip0_47_52">
<rect width="21" height="22" fill="white"/>
</clipPath>
</defs>
</svg>
