<svg width="15" height="15" viewBox="0 0 15 15" fill="none" xmlns="http://www.w3.org/2000/svg">
<path d="M0.662913 1.98908C0.296796 1.62297 0.296796 1.02938 0.662913 0.663259V0.663259C1.02903 0.297143 1.62262 0.297143 1.98874 0.663259L13.9212 12.5957C14.2873 12.9618 14.2873 13.5554 13.9212 13.9215V13.9215C13.555 14.2876 12.9615 14.2876 12.5953 13.9215L0.662913 1.98908Z" fill="#FF00F1"/>
<path d="M14.3371 1.98908C14.7032 1.62297 14.7032 1.02938 14.3371 0.663259V0.663259C13.971 0.297143 13.3774 0.297143 13.0113 0.663259L1.07884 12.5957C0.712719 12.9618 0.712719 13.5554 1.07884 13.9215V13.9215C1.44495 14.2876 2.03854 14.2876 2.40466 13.9215L14.3371 1.98908Z" fill="#FF00F1"/>
</svg>
