<svg width="90" height="90" viewBox="0 0 90 90" fill="none" xmlns="http://www.w3.org/2000/svg">
<path d="M56.4919 90C53.0078 90 50.446 88.4642 48.8065 85.3925C46.962 82.5256 46.8596 79.4539 48.4991 76.1775C52.1881 67.9863 54.4424 61.1263 55.2622 55.5973C56.082 50.273 56.1845 45.6655 55.5696 41.7747C54.7499 37.884 53.8276 34.0956 52.8029 30.4096C51.7782 26.9283 51.2658 22.9352 51.2658 18.43C51.2658 13.3106 53.1103 8.90786 56.7993 5.22185C60.4883 1.74062 64.8945 3.68787e-06 70.0181 4.13543e-06C76.3713 4.6904e-06 81.2899 2.66212 84.774 7.98636C88.258 13.3106 90 19.9659 90 27.9522C90 33.2765 88.8728 39.4198 86.6184 46.3823C84.3641 53.3447 81.5974 60.1024 78.3183 66.6553C74.8342 73.413 71.1453 78.942 67.2514 83.2423C63.3574 87.7474 59.7709 90 56.4919 90ZM9.15009 90C5.66607 90 3.10428 88.4641 1.46474 85.3925C-0.379748 82.5256 -0.482218 79.4539 1.15733 76.1775C4.84629 67.9863 7.10066 61.1263 7.92043 55.5973C8.74021 50.273 8.84268 45.6655 8.22785 41.7747C7.40808 37.884 6.48584 34.0956 5.46113 30.4096C4.43642 26.9283 3.92406 22.9352 3.92406 18.43C3.92406 13.3106 5.76854 8.90785 9.45751 5.22185C13.1465 1.74062 17.5527 -4.47557e-07 22.6763 0C29.0295 5.5497e-07 33.9482 2.66212 37.4322 7.98635C40.9162 13.3106 42.6582 19.9659 42.6582 27.9522C42.6582 33.2765 41.531 39.4198 39.2767 46.3823C37.0223 53.3447 34.2556 60.1024 30.9765 66.6553C27.4925 73.413 23.8035 78.942 19.9096 83.2423C16.0157 87.7474 12.4292 90 9.15009 90Z" fill="#FFFB01"/>
</svg>
