<svg width="52" height="51" viewBox="0 0 52 51" fill="none" xmlns="http://www.w3.org/2000/svg">
<path d="M25.2488 38.7003C25.4743 38.9696 25.8365 39.1304 26.2176 39.1304H26.2322H26.2532C26.6442 39.1195 27.0069 38.9433 27.2174 38.6638C27.2461 38.6258 30.5527 34.2353 33.786 28.9197C38.1957 21.6676 40.4314 16.1395 40.4314 12.4881C40.4314 5.60211 34.0532 0 26.1521 0C18.3123 0 11.9341 5.60211 11.9341 12.4881C11.9341 16.8835 14.1862 22.6429 18.6275 29.6053C21.9225 34.7738 25.227 38.6758 25.2493 38.701L25.2488 38.7003ZM26.2129 1.26587C33.2587 1.26587 38.9909 6.29997 38.9909 12.488C38.9909 15.9293 36.8119 21.2572 32.5167 28.3238C29.73 32.9033 26.9413 36.7216 26.2083 37.7095C25.4585 36.8026 22.6745 33.362 19.8836 28.987C15.564 22.2159 13.3738 16.6648 13.3738 12.4889C13.3742 6.30036 19.1059 1.26674 26.2133 1.26674L26.2129 1.26587Z" fill="#FFFB01"/>
<path d="M26.0095 20.6515C30.4494 20.6515 34.0621 16.9951 34.0621 12.5004C34.0621 8.00457 30.4494 4.34717 26.0095 4.34717C21.5685 4.34717 17.9549 8.00457 17.9549 12.5004C17.9559 16.9951 21.5695 20.6515 26.0095 20.6515ZM26.0095 6.02858C29.5331 6.02858 32.4004 8.93113 32.4004 12.5C32.4004 16.0663 29.5335 18.9693 26.0095 18.9693C22.4844 18.9693 19.6166 16.0677 19.6166 12.5C19.6175 8.93215 22.4859 6.02858 26.0095 6.02858Z" fill="#FFFB01"/>
<path fill-rule="evenodd" clip-rule="evenodd" d="M17.4549 12.5004C17.4549 7.73416 21.2867 3.84717 26.0095 3.84717C30.7314 3.84717 34.5621 7.73429 34.5621 12.5004C34.5621 17.2656 30.7313 21.1515 26.0095 21.1515C21.2878 21.1515 17.4559 17.2655 17.4549 12.5004ZM17.9549 12.5004C17.9549 8.00457 21.5685 4.34717 26.0095 4.34717C30.4494 4.34717 34.0621 8.00457 34.0621 12.5004C34.0621 16.9951 30.4494 20.6515 26.0095 20.6515C21.5695 20.6515 17.9559 16.9951 17.9549 12.5004Z" fill="#FFFB01"/>
<path d="M37.5881 30.9032C37.2337 30.8483 36.9054 31.0925 36.8504 31.4494C36.7961 31.8062 37.0374 32.1405 37.3899 32.1962C43.37 33.6403 49.4804 36.1766 49.4804 40.1234C49.4804 45.3556 38.6233 48.6902 25.774 48.6902C12.9228 48.6902 2.06764 45.3564 2.06764 40.1234C2.06764 36.1775 7.12119 33.6412 13.1027 32.1962C13.4552 32.1405 13.6965 31.8062 13.6415 31.4494C13.5865 31.0926 13.2536 30.8491 12.9026 30.9032C6.11329 32.4766 0.773926 35.4342 0.773926 40.1242C0.773926 46.2711 11.7552 50.0004 25.7739 50.0004C39.7926 50.0004 50.7739 46.2711 50.7739 40.1242C50.7739 35.4339 44.3771 32.4751 37.5881 30.9032Z" fill="#FFFB01"/>
<path fill-rule="evenodd" clip-rule="evenodd" d="M37.6829 30.4116L37.7009 30.4158C41.1198 31.2074 44.4765 32.3555 46.991 33.9194C49.4949 35.4767 51.2739 37.5209 51.2739 40.1238C51.2739 43.5399 48.2325 46.1238 43.7078 47.8347C39.1344 49.564 32.8191 50.5 25.7739 50.5C18.7288 50.5 12.4134 49.564 7.84006 47.8347C3.31535 46.1238 0.273926 43.5399 0.273926 40.1238C0.273926 37.5586 1.74314 35.5123 4.00631 33.9345C6.26374 32.3606 9.36532 31.2094 12.7897 30.4158L12.8079 30.4116L12.8264 30.4087C13.4527 30.3121 14.0389 30.7455 14.1357 31.3728L14.1357 31.3728C14.2307 31.9893 13.8204 32.576 13.2034 32.6859C10.2436 33.4021 7.55379 34.3796 5.61471 35.6407C3.66797 36.9069 2.56764 38.3946 2.56764 40.123C2.56764 41.2395 3.14205 42.3019 4.29068 43.2903C5.44306 44.2818 7.13653 45.1634 9.26441 45.8961C13.5163 47.3601 19.384 48.1899 25.774 48.1899C32.1631 48.1899 38.0308 47.3599 42.2829 45.8958C44.4109 45.163 46.1046 44.2815 47.2572 43.2899C48.406 42.3016 48.9804 41.2393 48.9804 40.123C48.9804 38.4347 47.6701 36.9431 45.4285 35.6544C43.2179 34.3836 40.2556 33.4032 37.2893 32.6859C36.6721 32.576 36.2624 31.9895 36.356 31.3739L36.3562 31.3728C36.4525 30.7485 37.0316 30.3107 37.6647 30.4088L37.6829 30.4116ZM37.3899 32.1958C43.37 33.6399 49.4804 36.1763 49.4804 40.123C49.4804 45.3553 38.6233 48.6899 25.774 48.6899C12.9228 48.6899 2.06764 45.3561 2.06764 40.123C2.06764 36.1772 7.12119 33.6408 13.1027 32.1958C13.4552 32.1401 13.6965 31.8059 13.6415 31.449C13.5865 31.0922 13.2536 30.8487 12.9026 30.9029C6.11329 32.4763 0.773926 35.4338 0.773926 40.1238C0.773926 46.2708 11.7552 50 25.7739 50C39.7926 50 50.7739 46.2708 50.7739 40.1238C50.7739 35.4335 44.3771 32.4748 37.5881 30.9029C37.2337 30.8479 36.9054 31.0922 36.8504 31.449C36.7961 31.8059 37.0374 32.1401 37.3899 32.1958Z" fill="#FFFB01"/>
</svg>
