<svg width="52" height="52" viewBox="0 0 52 52" fill="none" xmlns="http://www.w3.org/2000/svg">
<mask id="path-1-outside-1_47_21" maskUnits="userSpaceOnUse" x="-0.260864" y="0" width="52" height="52" fill="black">
<rect fill="white" x="-0.260864" width="52" height="52"/>
<path d="M43.9138 11.1541C43.9138 5.56658 39.3791 1 33.7907 1C30.613 1 27.6313 2.50418 25.7387 5.02934C23.8462 2.50418 20.847 1 17.6868 1C12.1163 1 7.56371 5.54857 7.56371 11.1541C7.56371 22.5253 24.6315 33.0922 25.3457 33.5393C25.4708 33.6109 25.5955 33.6469 25.7386 33.6469C25.8637 33.6469 26.0243 33.5933 26.1315 33.5393C26.8636 33.1096 43.9138 22.5263 43.9138 11.1541ZM25.739 31.9992C23.1683 30.3515 9.08237 20.7703 9.08237 11.1541C9.08237 6.39046 12.9388 2.52219 17.6879 2.52219C20.705 2.52219 23.5615 4.16995 25.097 6.78413C25.3648 7.24983 26.1323 7.24983 26.4001 6.78413C27.9356 4.16944 30.7922 2.52219 33.8093 2.52219C38.5584 2.52219 42.4148 6.40847 42.4148 11.1541C42.3965 20.7706 28.3099 30.3517 25.739 31.9992ZM17.5978 36.4583C16.4907 36.0106 15.5088 35.5989 12.349 31.3009C12.2777 31.1934 11.6708 30.334 10.5637 30.1009C9.77822 28.3101 9.31395 26.7699 8.95688 25.4808C8.58188 24.1737 8.27862 23.1347 7.77846 22.4364C7.31419 21.8096 6.63595 21.4155 5.8859 21.3979C5.43957 21.3799 4.95737 21.541 4.51099 21.7741C4.26113 21.3444 3.92199 21.0218 3.45774 20.9322C2.56508 20.7352 1.99357 21.0218 1.65445 21.2904C0.690852 22.1138 0.744249 23.7256 0.744249 23.851C0.512319 36.1187 8.2247 45.0543 12.8315 49.3165C14.0633 50.427 15.6167 50.9817 17.1876 50.9817C18.5625 50.9817 19.9369 50.552 21.0974 49.6746L21.8115 49.1374C23.0972 48.1524 23.936 46.6663 24.0965 45.0365C24.2571 43.3888 23.7574 41.813 22.6862 40.5775C19.8835 37.4075 18.669 36.888 17.5978 36.4583ZM5.83295 22.9381C6.10076 22.9381 6.33269 23.0812 6.54709 23.3498C6.88622 23.8155 7.17196 24.7465 7.49315 25.9285C7.83229 27.1461 8.27862 28.6147 8.99273 30.298C8.5998 30.4591 8.2252 30.6742 7.83226 31.0143C7.743 31.0859 7.6896 31.1399 7.60034 31.247C6.40396 28.3997 5.815 26.1071 5.40458 24.4779C5.29737 24.0302 5.17265 23.6185 5.06544 23.2063C5.29738 23.0276 5.56515 22.9381 5.83295 22.9381ZM22.5794 44.8761C22.4543 46.0937 21.8653 47.1862 20.8833 47.9205L20.1692 48.4578C18.2766 49.9084 15.6166 49.7829 13.8492 48.1892C9.43923 44.1063 2.03029 35.5634 2.2629 23.834C2.24496 23.4223 2.35216 22.706 2.61996 22.4729C2.65583 22.4549 2.70923 22.3834 2.86983 22.3834C2.92323 22.3834 3.01249 22.3834 3.10176 22.4369C3.35162 22.5625 3.65529 23.8336 3.94103 24.8545C4.4587 26.932 5.26208 30.0479 7.22595 34.0773C7.79742 35.9756 9.61819 38.4467 12.7964 41.6702C12.957 41.8313 13.1355 41.9029 13.332 41.9029C13.5285 41.9029 13.707 41.8313 13.8676 41.6702C14.1533 41.3836 14.1533 40.9003 13.8676 40.6137C10.1184 36.7995 8.95792 34.686 8.63677 33.558V33.54C8.35103 32.5551 8.7081 32.2504 8.8153 32.1609C9.31503 31.7312 9.7793 31.5341 10.1723 31.5701C10.7258 31.6416 11.0829 32.1253 11.1008 32.1789C14.5463 36.853 15.6893 37.3187 17.0104 37.856C17.9744 38.2677 18.9742 38.6618 21.5096 41.5807C22.3301 42.4945 22.7046 43.6586 22.5794 44.8761ZM49.8236 21.309C49.5024 21.0404 48.913 20.7538 48.0383 20.9508C47.5561 21.0404 47.2349 21.3626 46.9671 21.7927C46.5208 21.542 46.0385 21.3809 45.5922 21.4165C44.8422 21.4345 44.1819 21.8282 43.6996 22.455C43.1999 23.1533 42.8962 24.1923 42.5212 25.4994C42.1641 26.789 41.6999 28.3467 40.9144 30.1195C39.8073 30.3521 39.2004 31.194 39.147 31.3015C35.9693 35.6355 35.0048 36.0292 33.8803 36.4949C32.8091 36.9246 31.5952 37.4439 28.81 40.5958C27.7388 41.8313 27.2212 43.4076 27.3818 45.0548C27.5423 46.6845 28.3637 48.1707 29.6668 49.1557L30.3809 49.6929C31.5414 50.5703 32.9163 51 34.2907 51C35.8441 51 37.415 50.4448 38.6468 49.3347C43.2528 45.0728 50.9656 36.1359 50.734 23.9236C50.7344 23.7269 50.7876 22.1149 49.8236 21.309ZM44.0033 25.9116C44.3425 24.7296 44.5923 23.8161 44.9494 23.3329C45.1459 23.0643 45.3957 22.9212 45.6635 22.9212H45.6815C45.9313 22.9212 46.1812 23.0107 46.4315 23.1898C46.3243 23.6015 46.1995 23.9957 46.0923 24.4614C45.6819 26.0911 45.1104 28.3832 43.8966 31.2305C43.8073 31.1409 43.7539 31.0694 43.6646 30.9978C43.2896 30.6577 42.8971 30.4246 42.5042 30.2815C43.2179 28.5978 43.6463 27.1291 44.0033 25.9116ZM49.2167 23.8882C49.4311 35.5643 42.0395 44.106 37.612 48.1901C35.8446 49.7838 33.202 49.9094 31.292 48.4587L30.5779 47.9215C29.6139 47.1691 29.007 46.0946 28.8818 44.8771C28.7567 43.6595 29.1317 42.4955 29.9351 41.5821C32.4705 38.6807 33.4698 38.2691 34.4343 37.8574C35.7554 37.3201 36.8979 36.8364 40.3619 32.1268C40.3619 32.1268 40.7189 31.6255 41.2725 31.5715H41.3976H41.4335C41.8085 31.5895 42.201 31.7686 42.6473 32.1623C42.7545 32.2519 43.0936 32.5385 42.8258 33.5415C42.8258 33.5415 42.8079 33.5415 42.8079 33.5594C42.4867 34.6875 41.3263 36.8009 37.5771 40.6152C37.2913 40.9018 37.2913 41.385 37.595 41.6716C37.7377 41.8327 37.9341 41.9043 38.1306 41.9043C38.3271 41.9043 38.5235 41.8327 38.6662 41.6716C41.8439 38.4482 43.6651 35.959 44.2366 34.0787C46.2185 30.0493 47.0039 26.9334 47.5216 24.856C47.7894 23.835 48.093 22.5814 48.3429 22.4384C48.682 22.3488 48.7892 22.4384 48.8251 22.4743C49.1276 22.7066 49.2346 23.4225 49.2167 23.8882ZM31.2205 14.5399H28.5066V11.8357C28.5066 10.7792 27.6498 9.91929 26.5961 9.91929H24.8641C23.8109 9.91929 22.9536 10.7787 22.9536 11.8357L22.954 14.5399H20.2401C19.1868 14.5399 18.3296 15.3993 18.3296 16.4738V18.2111C18.3296 19.2676 19.1864 20.1094 20.2401 20.1094H22.954V22.8317C22.954 23.8882 23.8108 24.7481 24.8645 24.7481H26.5965C27.6497 24.7481 28.507 23.8886 28.507 22.8317V20.1094H31.2209C32.2742 20.1094 33.1489 19.2676 33.1489 18.2111V16.4738C33.1485 15.3993 32.2917 14.5399 31.2205 14.5399ZM31.631 18.2111C31.631 18.4082 31.4525 18.5872 31.2205 18.5872H27.7571C27.3466 18.5872 27.0071 18.9274 27.0071 19.3571V22.8312C27.0071 23.0638 26.8285 23.2429 26.5966 23.2429H24.8646C24.6327 23.2429 24.4717 23.0638 24.4717 22.8312V19.3751C24.4717 18.9454 24.1326 18.6052 23.7042 18.6052H20.2407C20.0088 18.6052 19.8478 18.4262 19.8478 18.2291V16.4918C19.8478 16.2592 20.0084 16.0801 20.2407 16.0801H23.7042C24.1326 16.0801 24.4717 15.7219 24.4717 15.3102V11.8357C24.4717 11.603 24.6323 11.424 24.8646 11.424H26.5966C26.8285 11.424 27.0071 11.603 27.0071 11.8357V15.3098C27.0071 15.7215 27.3462 16.0797 27.7571 16.0797H31.2205C31.4525 16.0797 31.631 16.2587 31.631 16.4914V18.2111Z"/>
</mask>
<path d="M43.9138 11.1541C43.9138 5.56658 39.3791 1 33.7907 1C30.613 1 27.6313 2.50418 25.7387 5.02934C23.8462 2.50418 20.847 1 17.6868 1C12.1163 1 7.56371 5.54857 7.56371 11.1541C7.56371 22.5253 24.6315 33.0922 25.3457 33.5393C25.4708 33.6109 25.5955 33.6469 25.7386 33.6469C25.8637 33.6469 26.0243 33.5933 26.1315 33.5393C26.8636 33.1096 43.9138 22.5263 43.9138 11.1541ZM25.739 31.9992C23.1683 30.3515 9.08237 20.7703 9.08237 11.1541C9.08237 6.39046 12.9388 2.52219 17.6879 2.52219C20.705 2.52219 23.5615 4.16995 25.097 6.78413C25.3648 7.24983 26.1323 7.24983 26.4001 6.78413C27.9356 4.16944 30.7922 2.52219 33.8093 2.52219C38.5584 2.52219 42.4148 6.40847 42.4148 11.1541C42.3965 20.7706 28.3099 30.3517 25.739 31.9992ZM17.5978 36.4583C16.4907 36.0106 15.5088 35.5989 12.349 31.3009C12.2777 31.1934 11.6708 30.334 10.5637 30.1009C9.77822 28.3101 9.31395 26.7699 8.95688 25.4808C8.58188 24.1737 8.27862 23.1347 7.77846 22.4364C7.31419 21.8096 6.63595 21.4155 5.8859 21.3979C5.43957 21.3799 4.95737 21.541 4.51099 21.7741C4.26113 21.3444 3.92199 21.0218 3.45774 20.9322C2.56508 20.7352 1.99357 21.0218 1.65445 21.2904C0.690852 22.1138 0.744249 23.7256 0.744249 23.851C0.512319 36.1187 8.2247 45.0543 12.8315 49.3165C14.0633 50.427 15.6167 50.9817 17.1876 50.9817C18.5625 50.9817 19.9369 50.552 21.0974 49.6746L21.8115 49.1374C23.0972 48.1524 23.936 46.6663 24.0965 45.0365C24.2571 43.3888 23.7574 41.813 22.6862 40.5775C19.8835 37.4075 18.669 36.888 17.5978 36.4583ZM5.83295 22.9381C6.10076 22.9381 6.33269 23.0812 6.54709 23.3498C6.88622 23.8155 7.17196 24.7465 7.49315 25.9285C7.83229 27.1461 8.27862 28.6147 8.99273 30.298C8.5998 30.4591 8.2252 30.6742 7.83226 31.0143C7.743 31.0859 7.6896 31.1399 7.60034 31.247C6.40396 28.3997 5.815 26.1071 5.40458 24.4779C5.29737 24.0302 5.17265 23.6185 5.06544 23.2063C5.29738 23.0276 5.56515 22.9381 5.83295 22.9381ZM22.5794 44.8761C22.4543 46.0937 21.8653 47.1862 20.8833 47.9205L20.1692 48.4578C18.2766 49.9084 15.6166 49.7829 13.8492 48.1892C9.43923 44.1063 2.03029 35.5634 2.2629 23.834C2.24496 23.4223 2.35216 22.706 2.61996 22.4729C2.65583 22.4549 2.70923 22.3834 2.86983 22.3834C2.92323 22.3834 3.01249 22.3834 3.10176 22.4369C3.35162 22.5625 3.65529 23.8336 3.94103 24.8545C4.4587 26.932 5.26208 30.0479 7.22595 34.0773C7.79742 35.9756 9.61819 38.4467 12.7964 41.6702C12.957 41.8313 13.1355 41.9029 13.332 41.9029C13.5285 41.9029 13.707 41.8313 13.8676 41.6702C14.1533 41.3836 14.1533 40.9003 13.8676 40.6137C10.1184 36.7995 8.95792 34.686 8.63677 33.558V33.54C8.35103 32.5551 8.7081 32.2504 8.8153 32.1609C9.31503 31.7312 9.7793 31.5341 10.1723 31.5701C10.7258 31.6416 11.0829 32.1253 11.1008 32.1789C14.5463 36.853 15.6893 37.3187 17.0104 37.856C17.9744 38.2677 18.9742 38.6618 21.5096 41.5807C22.3301 42.4945 22.7046 43.6586 22.5794 44.8761ZM49.8236 21.309C49.5024 21.0404 48.913 20.7538 48.0383 20.9508C47.5561 21.0404 47.2349 21.3626 46.9671 21.7927C46.5208 21.542 46.0385 21.3809 45.5922 21.4165C44.8422 21.4345 44.1819 21.8282 43.6996 22.455C43.1999 23.1533 42.8962 24.1923 42.5212 25.4994C42.1641 26.789 41.6999 28.3467 40.9144 30.1195C39.8073 30.3521 39.2004 31.194 39.147 31.3015C35.9693 35.6355 35.0048 36.0292 33.8803 36.4949C32.8091 36.9246 31.5952 37.4439 28.81 40.5958C27.7388 41.8313 27.2212 43.4076 27.3818 45.0548C27.5423 46.6845 28.3637 48.1707 29.6668 49.1557L30.3809 49.6929C31.5414 50.5703 32.9163 51 34.2907 51C35.8441 51 37.415 50.4448 38.6468 49.3347C43.2528 45.0728 50.9656 36.1359 50.734 23.9236C50.7344 23.7269 50.7876 22.1149 49.8236 21.309ZM44.0033 25.9116C44.3425 24.7296 44.5923 23.8161 44.9494 23.3329C45.1459 23.0643 45.3957 22.9212 45.6635 22.9212H45.6815C45.9313 22.9212 46.1812 23.0107 46.4315 23.1898C46.3243 23.6015 46.1995 23.9957 46.0923 24.4614C45.6819 26.0911 45.1104 28.3832 43.8966 31.2305C43.8073 31.1409 43.7539 31.0694 43.6646 30.9978C43.2896 30.6577 42.8971 30.4246 42.5042 30.2815C43.2179 28.5978 43.6463 27.1291 44.0033 25.9116ZM49.2167 23.8882C49.4311 35.5643 42.0395 44.106 37.612 48.1901C35.8446 49.7838 33.202 49.9094 31.292 48.4587L30.5779 47.9215C29.6139 47.1691 29.007 46.0946 28.8818 44.8771C28.7567 43.6595 29.1317 42.4955 29.9351 41.5821C32.4705 38.6807 33.4698 38.2691 34.4343 37.8574C35.7554 37.3201 36.8979 36.8364 40.3619 32.1268C40.3619 32.1268 40.7189 31.6255 41.2725 31.5715H41.3976H41.4335C41.8085 31.5895 42.201 31.7686 42.6473 32.1623C42.7545 32.2519 43.0936 32.5385 42.8258 33.5415C42.8258 33.5415 42.8079 33.5415 42.8079 33.5594C42.4867 34.6875 41.3263 36.8009 37.5771 40.6152C37.2913 40.9018 37.2913 41.385 37.595 41.6716C37.7377 41.8327 37.9341 41.9043 38.1306 41.9043C38.3271 41.9043 38.5235 41.8327 38.6662 41.6716C41.8439 38.4482 43.6651 35.959 44.2366 34.0787C46.2185 30.0493 47.0039 26.9334 47.5216 24.856C47.7894 23.835 48.093 22.5814 48.3429 22.4384C48.682 22.3488 48.7892 22.4384 48.8251 22.4743C49.1276 22.7066 49.2346 23.4225 49.2167 23.8882ZM31.2205 14.5399H28.5066V11.8357C28.5066 10.7792 27.6498 9.91929 26.5961 9.91929H24.8641C23.8109 9.91929 22.9536 10.7787 22.9536 11.8357L22.954 14.5399H20.2401C19.1868 14.5399 18.3296 15.3993 18.3296 16.4738V18.2111C18.3296 19.2676 19.1864 20.1094 20.2401 20.1094H22.954V22.8317C22.954 23.8882 23.8108 24.7481 24.8645 24.7481H26.5965C27.6497 24.7481 28.507 23.8886 28.507 22.8317V20.1094H31.2209C32.2742 20.1094 33.1489 19.2676 33.1489 18.2111V16.4738C33.1485 15.3993 32.2917 14.5399 31.2205 14.5399ZM31.631 18.2111C31.631 18.4082 31.4525 18.5872 31.2205 18.5872H27.7571C27.3466 18.5872 27.0071 18.9274 27.0071 19.3571V22.8312C27.0071 23.0638 26.8285 23.2429 26.5966 23.2429H24.8646C24.6327 23.2429 24.4717 23.0638 24.4717 22.8312V19.3751C24.4717 18.9454 24.1326 18.6052 23.7042 18.6052H20.2407C20.0088 18.6052 19.8478 18.4262 19.8478 18.2291V16.4918C19.8478 16.2592 20.0084 16.0801 20.2407 16.0801H23.7042C24.1326 16.0801 24.4717 15.7219 24.4717 15.3102V11.8357C24.4717 11.603 24.6323 11.424 24.8646 11.424H26.5966C26.8285 11.424 27.0071 11.603 27.0071 11.8357V15.3098C27.0071 15.7215 27.3462 16.0797 27.7571 16.0797H31.2205C31.4525 16.0797 31.631 16.2587 31.631 16.4914V18.2111Z" fill="#FFFB01"/>
<path d="M43.9138 11.1541C43.9138 5.56658 39.3791 1 33.7907 1C30.613 1 27.6313 2.50418 25.7387 5.02934C23.8462 2.50418 20.847 1 17.6868 1C12.1163 1 7.56371 5.54857 7.56371 11.1541C7.56371 22.5253 24.6315 33.0922 25.3457 33.5393C25.4708 33.6109 25.5955 33.6469 25.7386 33.6469C25.8637 33.6469 26.0243 33.5933 26.1315 33.5393C26.8636 33.1096 43.9138 22.5263 43.9138 11.1541ZM25.739 31.9992C23.1683 30.3515 9.08237 20.7703 9.08237 11.1541C9.08237 6.39046 12.9388 2.52219 17.6879 2.52219C20.705 2.52219 23.5615 4.16995 25.097 6.78413C25.3648 7.24983 26.1323 7.24983 26.4001 6.78413C27.9356 4.16944 30.7922 2.52219 33.8093 2.52219C38.5584 2.52219 42.4148 6.40847 42.4148 11.1541C42.3965 20.7706 28.3099 30.3517 25.739 31.9992ZM17.5978 36.4583C16.4907 36.0106 15.5088 35.5989 12.349 31.3009C12.2777 31.1934 11.6708 30.334 10.5637 30.1009C9.77822 28.3101 9.31395 26.7699 8.95688 25.4808C8.58188 24.1737 8.27862 23.1347 7.77846 22.4364C7.31419 21.8096 6.63595 21.4155 5.8859 21.3979C5.43957 21.3799 4.95737 21.541 4.51099 21.7741C4.26113 21.3444 3.92199 21.0218 3.45774 20.9322C2.56508 20.7352 1.99357 21.0218 1.65445 21.2904C0.690852 22.1138 0.744249 23.7256 0.744249 23.851C0.512319 36.1187 8.2247 45.0543 12.8315 49.3165C14.0633 50.427 15.6167 50.9817 17.1876 50.9817C18.5625 50.9817 19.9369 50.552 21.0974 49.6746L21.8115 49.1374C23.0972 48.1524 23.936 46.6663 24.0965 45.0365C24.2571 43.3888 23.7574 41.813 22.6862 40.5775C19.8835 37.4075 18.669 36.888 17.5978 36.4583ZM5.83295 22.9381C6.10076 22.9381 6.33269 23.0812 6.54709 23.3498C6.88622 23.8155 7.17196 24.7465 7.49315 25.9285C7.83229 27.1461 8.27862 28.6147 8.99273 30.298C8.5998 30.4591 8.2252 30.6742 7.83226 31.0143C7.743 31.0859 7.6896 31.1399 7.60034 31.247C6.40396 28.3997 5.815 26.1071 5.40458 24.4779C5.29737 24.0302 5.17265 23.6185 5.06544 23.2063C5.29738 23.0276 5.56515 22.9381 5.83295 22.9381ZM22.5794 44.8761C22.4543 46.0937 21.8653 47.1862 20.8833 47.9205L20.1692 48.4578C18.2766 49.9084 15.6166 49.7829 13.8492 48.1892C9.43923 44.1063 2.03029 35.5634 2.2629 23.834C2.24496 23.4223 2.35216 22.706 2.61996 22.4729C2.65583 22.4549 2.70923 22.3834 2.86983 22.3834C2.92323 22.3834 3.01249 22.3834 3.10176 22.4369C3.35162 22.5625 3.65529 23.8336 3.94103 24.8545C4.4587 26.932 5.26208 30.0479 7.22595 34.0773C7.79742 35.9756 9.61819 38.4467 12.7964 41.6702C12.957 41.8313 13.1355 41.9029 13.332 41.9029C13.5285 41.9029 13.707 41.8313 13.8676 41.6702C14.1533 41.3836 14.1533 40.9003 13.8676 40.6137C10.1184 36.7995 8.95792 34.686 8.63677 33.558V33.54C8.35103 32.5551 8.7081 32.2504 8.8153 32.1609C9.31503 31.7312 9.7793 31.5341 10.1723 31.5701C10.7258 31.6416 11.0829 32.1253 11.1008 32.1789C14.5463 36.853 15.6893 37.3187 17.0104 37.856C17.9744 38.2677 18.9742 38.6618 21.5096 41.5807C22.3301 42.4945 22.7046 43.6586 22.5794 44.8761ZM49.8236 21.309C49.5024 21.0404 48.913 20.7538 48.0383 20.9508C47.5561 21.0404 47.2349 21.3626 46.9671 21.7927C46.5208 21.542 46.0385 21.3809 45.5922 21.4165C44.8422 21.4345 44.1819 21.8282 43.6996 22.455C43.1999 23.1533 42.8962 24.1923 42.5212 25.4994C42.1641 26.789 41.6999 28.3467 40.9144 30.1195C39.8073 30.3521 39.2004 31.194 39.147 31.3015C35.9693 35.6355 35.0048 36.0292 33.8803 36.4949C32.8091 36.9246 31.5952 37.4439 28.81 40.5958C27.7388 41.8313 27.2212 43.4076 27.3818 45.0548C27.5423 46.6845 28.3637 48.1707 29.6668 49.1557L30.3809 49.6929C31.5414 50.5703 32.9163 51 34.2907 51C35.8441 51 37.415 50.4448 38.6468 49.3347C43.2528 45.0728 50.9656 36.1359 50.734 23.9236C50.7344 23.7269 50.7876 22.1149 49.8236 21.309ZM44.0033 25.9116C44.3425 24.7296 44.5923 23.8161 44.9494 23.3329C45.1459 23.0643 45.3957 22.9212 45.6635 22.9212H45.6815C45.9313 22.9212 46.1812 23.0107 46.4315 23.1898C46.3243 23.6015 46.1995 23.9957 46.0923 24.4614C45.6819 26.0911 45.1104 28.3832 43.8966 31.2305C43.8073 31.1409 43.7539 31.0694 43.6646 30.9978C43.2896 30.6577 42.8971 30.4246 42.5042 30.2815C43.2179 28.5978 43.6463 27.1291 44.0033 25.9116ZM49.2167 23.8882C49.4311 35.5643 42.0395 44.106 37.612 48.1901C35.8446 49.7838 33.202 49.9094 31.292 48.4587L30.5779 47.9215C29.6139 47.1691 29.007 46.0946 28.8818 44.8771C28.7567 43.6595 29.1317 42.4955 29.9351 41.5821C32.4705 38.6807 33.4698 38.2691 34.4343 37.8574C35.7554 37.3201 36.8979 36.8364 40.3619 32.1268C40.3619 32.1268 40.7189 31.6255 41.2725 31.5715H41.3976H41.4335C41.8085 31.5895 42.201 31.7686 42.6473 32.1623C42.7545 32.2519 43.0936 32.5385 42.8258 33.5415C42.8258 33.5415 42.8079 33.5415 42.8079 33.5594C42.4867 34.6875 41.3263 36.8009 37.5771 40.6152C37.2913 40.9018 37.2913 41.385 37.595 41.6716C37.7377 41.8327 37.9341 41.9043 38.1306 41.9043C38.3271 41.9043 38.5235 41.8327 38.6662 41.6716C41.8439 38.4482 43.6651 35.959 44.2366 34.0787C46.2185 30.0493 47.0039 26.9334 47.5216 24.856C47.7894 23.835 48.093 22.5814 48.3429 22.4384C48.682 22.3488 48.7892 22.4384 48.8251 22.4743C49.1276 22.7066 49.2346 23.4225 49.2167 23.8882ZM31.2205 14.5399H28.5066V11.8357C28.5066 10.7792 27.6498 9.91929 26.5961 9.91929H24.8641C23.8109 9.91929 22.9536 10.7787 22.9536 11.8357L22.954 14.5399H20.2401C19.1868 14.5399 18.3296 15.3993 18.3296 16.4738V18.2111C18.3296 19.2676 19.1864 20.1094 20.2401 20.1094H22.954V22.8317C22.954 23.8882 23.8108 24.7481 24.8645 24.7481H26.5965C27.6497 24.7481 28.507 23.8886 28.507 22.8317V20.1094H31.2209C32.2742 20.1094 33.1489 19.2676 33.1489 18.2111V16.4738C33.1485 15.3993 32.2917 14.5399 31.2205 14.5399ZM31.631 18.2111C31.631 18.4082 31.4525 18.5872 31.2205 18.5872H27.7571C27.3466 18.5872 27.0071 18.9274 27.0071 19.3571V22.8312C27.0071 23.0638 26.8285 23.2429 26.5966 23.2429H24.8646C24.6327 23.2429 24.4717 23.0638 24.4717 22.8312V19.3751C24.4717 18.9454 24.1326 18.6052 23.7042 18.6052H20.2407C20.0088 18.6052 19.8478 18.4262 19.8478 18.2291V16.4918C19.8478 16.2592 20.0084 16.0801 20.2407 16.0801H23.7042C24.1326 16.0801 24.4717 15.7219 24.4717 15.3102V11.8357C24.4717 11.603 24.6323 11.424 24.8646 11.424H26.5966C26.8285 11.424 27.0071 11.603 27.0071 11.8357V15.3098C27.0071 15.7215 27.3462 16.0797 27.7571 16.0797H31.2205C31.4525 16.0797 31.631 16.2587 31.631 16.4914V18.2111Z" stroke="#FFFB01" stroke-width="0.6" mask="url(#path-1-outside-1_47_21)"/>
</svg>
