<svg width="52" height="50" viewBox="0 0 52 50" fill="none" xmlns="http://www.w3.org/2000/svg">
<path d="M15.4353 43.1306C15.2179 43.02 15.0141 42.9094 14.8104 42.7988C14.6067 42.6882 14.4029 42.5776 14.1855 42.4671C14.1438 42.4458 14.1101 42.4326 14.0813 42.4214C14.0352 42.4034 14.0017 42.3904 13.9683 42.3564L15.4353 43.1306ZM15.4353 43.1306C15.5441 43.1857 15.6525 43.2413 15.7071 43.2964L15.4353 43.1306ZM50.9539 25.9891L50.9538 25.761L50.7267 25.7402L44.8392 25.2004C43.6832 22.695 41.75 20.4659 39.1485 18.7136C38.9604 16.7527 39.2808 14.7851 40.0675 12.756L40.5012 11.7079L40.7037 11.2186L40.1972 11.3732L39.1104 11.7049L39.1104 11.7049L39.1083 11.7056C36.8232 12.4254 35.0166 13.9008 33.7428 16.0669C31.2771 15.2703 28.7055 14.846 25.9784 14.846L25.977 14.846C15.7869 14.901 7.22426 20.8598 6.14207 28.6605C4.60489 28.5841 3.61924 28.254 3.01332 27.5898L3.01327 27.5897C2.36578 26.8803 2.04601 25.847 2.04601 24.3301C2.04601 24.1088 1.97258 23.9042 1.82496 23.754C1.67695 23.6033 1.47376 23.527 1.25243 23.527C0.856031 23.527 0.460981 23.8461 0.458861 24.3262C0.404116 26.2442 0.847265 27.7026 1.83486 28.7076L2.01317 28.5324L1.83487 28.7076C2.98191 29.8748 4.57933 30.1866 6.00189 30.2642V30.3572C6.00189 34.2843 7.91787 37.9735 11.3375 40.8232L12.0349 48.7368L12.055 48.9649H12.2839H19.4027H19.6331L19.6519 48.7353L19.954 45.0456C21.8941 45.5081 23.9365 45.8129 26.0326 45.8129C28.1265 45.8129 30.1217 45.5587 32.1115 45.0508L32.4132 48.7353L32.432 48.9649H32.6624H39.7812H40.0101L40.0302 48.7368L40.7278 40.8211C41.9852 39.7438 43.0425 38.5616 43.8984 37.2744L50.7493 36.0223L50.9544 35.9849L50.9543 35.7764L50.9539 25.9891ZM35.2503 16.6551C36.01 15.4907 36.9121 14.5884 38.0144 13.9403C37.6727 15.2011 37.5052 16.4894 37.5125 17.7491C37.4113 17.695 37.3114 17.6408 37.2106 17.5861L37.2094 17.5854C37.0064 17.4752 36.8002 17.3633 36.5797 17.2512L36.5795 17.2511L36.417 17.1684L36.2538 17.0854C36.0423 16.9778 35.8191 16.8877 35.5935 16.7966C35.4793 16.7504 35.3645 16.7041 35.2503 16.6551ZM13.0094 42.0749C13.2678 42.238 13.5458 42.4 13.8192 42.5589C13.8713 42.6035 13.9226 42.627 13.9623 42.6432C13.9755 42.6486 13.9867 42.6529 13.9969 42.6569C14.0226 42.6669 14.042 42.6745 14.0715 42.6896L14.0722 42.69C14.2862 42.7987 14.487 42.9078 14.6912 43.0186L14.6926 43.0193C14.8955 43.1295 15.1017 43.2414 15.322 43.3534L15.3223 43.3535C15.3778 43.3817 15.4255 43.4061 15.4657 43.4295C15.4854 43.441 15.5008 43.4508 15.5125 43.4591C15.5182 43.4631 15.5225 43.4664 15.5255 43.4688C15.5283 43.4711 15.5294 43.4723 15.5294 43.4723L15.5578 43.501L15.5938 43.5193C15.8759 43.6627 16.166 43.787 16.4618 43.9138C16.6271 43.9847 16.7942 44.0563 16.9627 44.1325L16.9738 44.1375L16.9854 44.1414C17.2274 44.2235 17.4564 44.3057 17.6876 44.3887L17.6887 44.3892C17.912 44.4693 18.1374 44.5503 18.3756 44.6313L18.1406 47.3593H13.4381L13.0094 42.0749ZM33.8154 47.3593L33.5802 44.6313C34.5508 44.3018 35.4823 43.967 36.362 43.5192L36.3643 43.518C36.4199 43.4899 36.4661 43.4664 36.505 43.4494C36.5204 43.4427 36.5316 43.4383 36.5392 43.4357H36.5803L36.6337 43.4086C37.0671 43.1882 37.5084 42.9636 37.8958 42.7384L37.9249 42.7215L37.9462 42.6999C37.9487 42.6985 37.9542 42.6954 37.9651 42.6899L37.9685 42.6882C37.9925 42.676 38.0364 42.6537 38.0827 42.6138C38.268 42.5056 38.4405 42.3975 38.6094 42.2918L38.6101 42.2913C38.7063 42.2311 38.8012 42.1716 38.8977 42.1125L38.516 47.3593H33.8154ZM39.5356 39.6826L39.5352 39.6824L39.4087 39.7826C37.4798 41.3091 35.1181 42.5116 32.5378 43.2775C28.3445 44.4807 23.6105 44.4806 19.4174 43.2771L19.4174 43.277L19.41 43.2752C18.7704 43.1124 18.1328 42.8958 17.5511 42.6271L17.5441 42.6238L17.5369 42.621C15.7119 41.9109 13.9947 40.9281 12.548 39.7828C9.33673 37.2232 7.58889 33.8631 7.58889 30.3573C7.58889 26.5545 9.62912 23.0976 12.9577 20.5829C16.2865 18.0682 20.8923 16.5071 25.9784 16.5071C28.7226 16.5071 31.3568 16.9451 33.8282 17.8196C35.3364 18.3679 36.7297 19.0231 37.9589 19.8384L37.9618 19.8403C40.59 21.532 42.5618 23.7618 43.5715 26.2487L43.5718 26.2494C44.1026 27.5452 44.3681 28.9505 44.3681 30.357C44.3681 32.3521 43.7856 34.2983 42.6653 36.1439L42.6651 36.1438L42.66 36.1532C41.9425 37.4572 40.8721 38.6177 39.5356 39.6826ZM49.4219 27.3768V34.6178L44.8998 35.4412C44.9033 35.4312 44.9062 35.4223 44.9085 35.4153L44.9096 35.412C44.914 35.3987 44.9168 35.3904 44.9188 35.3848L44.9329 35.3706L44.9509 35.334C45.0111 35.2118 45.0556 35.0909 45.0953 34.9831L45.0971 34.9783C45.1265 34.8984 45.1535 34.8255 45.1838 34.7551H45.2082L45.2769 34.6155C45.3392 34.4889 45.3846 34.3502 45.4236 34.231L45.4261 34.2235C45.468 34.0955 45.5035 33.9884 45.5487 33.8964L45.5744 33.8442V33.8006C45.5773 33.7894 45.5818 33.7755 45.5891 33.7533L45.5899 33.7508C45.5961 33.7318 45.6047 33.7055 45.6116 33.6798C45.6155 33.6651 45.6212 33.6427 45.6248 33.6164C45.675 33.463 45.7374 33.2688 45.7374 33.0675C45.7374 33.0559 45.7386 33.0482 45.7521 33.0069L45.7536 33.0023C45.7654 32.9665 45.7843 32.9086 45.79 32.8339C45.8159 32.745 45.8299 32.6596 45.8414 32.5896L45.8425 32.5827C45.8565 32.4972 45.8676 32.4332 45.8878 32.3716L45.9004 32.3335V32.2934C45.9004 32.2818 45.9016 32.2741 45.9151 32.2328L45.9166 32.2282C45.9305 32.1858 45.9546 32.1124 45.9546 32.0169C45.9546 31.9594 45.9635 31.9004 45.977 31.8106L45.9789 31.7984C45.9926 31.7072 46.0088 31.5945 46.0088 31.4638V31.1872C46.0088 31.0644 46.0207 30.9529 46.0344 30.8272L46.0349 30.8227C46.0482 30.7008 46.063 30.565 46.063 30.4131V30.4019C46.063 30.0304 46.063 29.6875 46.0088 29.3426C46.0089 29.245 46.0075 29.1023 45.9446 28.9546C45.9246 28.8464 45.9131 28.7467 45.9012 28.6436L45.8987 28.6218C45.8861 28.5132 45.8722 28.3973 45.8448 28.2785C45.8411 28.2074 45.8264 28.133 45.816 28.0802L45.814 28.07C45.7988 27.9927 45.7916 27.9503 45.7916 27.9245V27.8943L45.7844 27.865C45.7582 27.7581 45.7317 27.637 45.7043 27.5118L45.7036 27.5087C45.6768 27.386 45.6492 27.2595 45.6214 27.1461L45.615 27.1199L45.6031 27.0956C45.5907 27.0704 45.5829 27.0434 45.5707 26.9945L49.4219 27.3768Z" fill="#FFFB01" stroke="#FFFB01" stroke-width="0.5"/>
<path d="M29.5602 18.3345C26.9691 17.7189 23.9988 17.7749 21.4636 18.4468C21.2421 18.4947 21.082 18.6496 20.9895 18.8192C20.8959 18.9906 20.8563 19.2017 20.8955 19.4017L20.8953 19.4018L20.898 19.4131C20.9833 19.7606 21.3133 19.9908 21.6844 19.9908H21.8474H21.8822L21.9157 19.9813C24.2102 19.3298 26.883 19.275 29.2865 19.8727L29.2864 19.873L29.2971 19.8751C29.4971 19.9157 29.7075 19.8746 29.8775 19.7785C30.0482 19.6819 30.2 19.5163 30.2441 19.291L30.2488 19.2671V19.2429C30.2488 19.0381 30.1986 18.8332 30.082 18.665C29.9637 18.4945 29.7856 18.3749 29.5602 18.3345Z" fill="#FFFB01" stroke="#FFFB01" stroke-width="0.5"/>
<path d="M37.6614 22.0347C36.4866 22.0347 35.5638 22.98 35.5638 24.1646C35.5638 25.3492 36.4867 26.2945 37.6614 26.2945C38.8361 26.2945 39.7589 25.3492 39.7589 24.1646C39.7589 22.98 38.8361 22.0347 37.6614 22.0347ZM37.6614 24.7439C37.3687 24.7439 37.1506 24.5282 37.1506 24.2198C37.1506 23.8886 37.3904 23.6405 37.6614 23.6405C37.954 23.6405 38.1721 23.8562 38.1721 24.1646C38.1721 24.4962 37.9324 24.7439 37.6614 24.7439Z" fill="#FFFB01" stroke="#FFFB01" stroke-width="0.5"/>
<path d="M25.5418 13.6312C27.5315 13.6312 29.1609 11.9669 29.1609 9.95307C29.1609 7.93919 27.5315 6.2749 25.5418 6.2749C23.5521 6.2749 21.9226 7.93919 21.9226 9.95307C21.9226 11.9669 23.5521 13.6312 25.5418 13.6312ZM25.5418 7.8252C26.6494 7.8252 27.5742 8.75986 27.5742 9.89758C27.5742 11.0353 26.6494 11.9699 25.5418 11.9699C24.4341 11.9699 23.5094 11.0353 23.5094 9.89758C23.5094 8.75986 24.4341 7.8252 25.5418 7.8252Z" fill="#FFFB01" stroke="#FFFB01" stroke-width="0.5"/>
<path d="M25.8796 5.31083V5.28436C25.9679 5.26435 26.0508 5.23245 26.1236 5.18679C26.2687 5.09587 26.378 4.94468 26.378 4.74836V1.31245C26.378 1.11635 26.2689 0.965162 26.1238 0.874166C25.985 0.787113 25.81 0.75 25.6296 0.75C25.4493 0.75 25.2743 0.787047 25.1355 0.874025C24.9904 0.96495 24.8811 1.11614 24.8811 1.31245V4.74859C24.8811 4.9449 24.9905 5.09602 25.1356 5.18686C25.2744 5.27378 25.4493 5.31083 25.6296 5.31083H25.8796Z" fill="#FFFB01" stroke="#FFFB01" stroke-width="0.5"/>
<path d="M23.6337 6.32596C23.8139 6.32596 23.9889 6.28892 24.1277 6.20195C24.2728 6.11103 24.3821 5.95984 24.3821 5.76352V2.32757C24.3821 2.13147 24.273 1.98028 24.1279 1.88929C23.9891 1.80225 23.8141 1.76514 23.6337 1.76514C23.4534 1.76514 23.2784 1.80218 23.1396 1.88915C22.9945 1.98007 22.8852 2.13126 22.8852 2.32757V5.76352C22.8852 5.9522 23.0027 6.09845 23.1328 6.18584C23.2673 6.27617 23.4422 6.32596 23.6337 6.32596Z" fill="#FFFB01" stroke="#FFFB01" stroke-width="0.5"/>
<path d="M27.625 6.32596C27.8052 6.32596 27.9803 6.28892 28.1191 6.20195C28.2642 6.11103 28.3735 5.95984 28.3735 5.76352V2.32757C28.3735 2.13147 28.2644 1.98028 28.1193 1.88929C27.9805 1.80225 27.8055 1.76514 27.625 1.76514C27.4448 1.76514 27.2698 1.80218 27.131 1.88915C26.9859 1.98007 26.8766 2.13126 26.8766 2.32757V5.76352C26.8766 5.9522 26.9941 6.09845 27.1242 6.18584C27.2586 6.27617 27.4335 6.32596 27.625 6.32596Z" fill="#FFFB01" stroke="#FFFB01" stroke-width="0.5"/>
</svg>
