<svg width="22" height="22" viewBox="0 0 22 22" fill="none" xmlns="http://www.w3.org/2000/svg">
<g clip-path="url(#clip0_47_50)">
<path d="M21.6603 2.18536C21.3916 1.85672 20.9891 1.67578 20.5268 1.67578C20.2756 1.67578 20.0094 1.72865 19.7358 1.83322L1.11319 8.94203C0.124912 9.31918 -0.00818995 9.88516 0.000370222 10.189C0.00893039 10.4928 0.173924 11.0504 1.18201 11.3711C1.18805 11.373 1.1941 11.3748 1.20014 11.3765L5.06296 12.4819L7.15198 18.4556C7.43682 19.27 8.07614 19.7759 8.82071 19.7759C9.29018 19.7759 9.75193 19.5791 10.1561 19.2072L12.5454 17.0072L16.0109 19.7977C16.0113 19.798 16.0118 19.7982 16.0121 19.7985L16.045 19.825C16.048 19.8274 16.0512 19.8299 16.0542 19.8323C16.4394 20.131 16.8599 20.2888 17.2706 20.289H17.2708C18.0733 20.289 18.7122 19.695 18.8984 18.7758L21.9497 3.70924C22.0722 3.10449 21.9695 2.56335 21.6603 2.18536ZM6.35521 12.2719L13.8078 8.46467L9.16732 13.3955C9.09128 13.4762 9.0374 13.5751 9.01088 13.6827L8.11609 17.3072L6.35521 12.2719ZM9.28279 18.2589C9.25191 18.2872 9.22086 18.3126 9.18981 18.3359L10.02 14.9736L11.5301 16.1896L9.28279 18.2589ZM20.6863 3.45328L17.635 18.52C17.6056 18.6642 17.5118 18.9997 17.2706 18.9997C17.1514 18.9997 17.0017 18.9348 16.8485 18.8168L12.9215 15.6549C12.921 15.6544 12.9204 15.6539 12.9197 15.6535L10.5831 13.772L17.2938 6.64136C17.5086 6.41308 17.5281 6.06346 17.3399 5.8127C17.1516 5.56193 16.8104 5.48305 16.5312 5.62572L5.49399 11.2644L1.57863 10.1441L20.1955 3.03752C20.3528 2.97743 20.4626 2.96484 20.5268 2.96484C20.5663 2.96484 20.6364 2.96954 20.6625 3.0016C20.6967 3.0434 20.7403 3.1859 20.6863 3.45328Z" fill="#333333"/>
</g>
<defs>
<clipPath id="clip0_47_50">
<rect width="22" height="22" fill="white"/>
</clipPath>
</defs>
</svg>
